<svg width="743" height="649" viewBox="0 0 743 649" fill="none" xmlns="http://www.w3.org/2000/svg">
<rect x="41" y="71" width="557" height="345" fill="#F9F9F9"/>
<rect x="79" y="317" width="114" height="114" rx="57" fill="#FE70BC"/>
<path d="M117.864 597.419V648.278H151.019V610.981L138.389 597.419H117.864Z" fill="white"/>
<path d="M138.976 594.333V611.025H154.521" stroke="#FE70BC" stroke-width="2" stroke-miterlimit="10" stroke-linecap="round" stroke-linejoin="round"/>
<path d="M125.758 639.801H139.967M125.758 614.372H132.073H125.758ZM125.758 622.849H143.125H125.758ZM125.758 631.325H143.125H125.758Z" stroke="#FE70BC" stroke-width="2" stroke-miterlimit="10" stroke-linecap="round" stroke-linejoin="round"/>
<g filter="url(#filter0_d_47_277)">
<rect x="378" y="45" width="255" height="89" fill="white"/>
</g>
<path d="M404.598 81V69.1H406.808V81H404.598ZM405.618 76.121V74.115H411.755V76.121H405.618ZM405.618 71.14V69.1H412.486V71.14H405.618ZM413.282 81L417.923 69.1H419.997L424.604 81H422.309L419.759 74.234C419.702 74.098 419.623 73.8827 419.521 73.588C419.43 73.2933 419.328 72.976 419.215 72.636C419.102 72.2847 419 71.9617 418.909 71.667C418.818 71.361 418.75 71.14 418.705 71.004L419.13 70.987C419.062 71.2137 418.983 71.4687 418.892 71.752C418.801 72.0353 418.705 72.33 418.603 72.636C418.501 72.942 418.399 73.2367 418.297 73.52C418.206 73.8033 418.121 74.0583 418.042 74.285L415.492 81H413.282ZM415.39 78.28L416.155 76.359H421.578L422.394 78.28H415.39ZM431.875 81.17C431.014 81.17 430.226 81.0227 429.512 80.728C428.798 80.4333 428.18 80.014 427.659 79.47C427.138 78.9147 426.73 78.263 426.435 77.515C426.152 76.7557 426.01 75.9283 426.01 75.033C426.01 74.1717 426.163 73.3727 426.469 72.636C426.775 71.8993 427.2 71.2533 427.744 70.698C428.288 70.1427 428.923 69.712 429.648 69.406C430.373 69.1 431.161 68.947 432.011 68.947C432.589 68.947 433.15 69.032 433.694 69.202C434.238 69.372 434.737 69.61 435.19 69.916C435.643 70.2107 436.023 70.5563 436.329 70.953L434.918 72.5C434.623 72.194 434.317 71.939 434 71.735C433.694 71.5197 433.371 71.361 433.031 71.259C432.702 71.1457 432.362 71.089 432.011 71.089C431.49 71.089 430.997 71.1853 430.532 71.378C430.079 71.5707 429.682 71.8427 429.342 72.194C429.013 72.5453 428.753 72.9647 428.56 73.452C428.367 73.928 428.271 74.4607 428.271 75.05C428.271 75.6507 428.362 76.1947 428.543 76.682C428.736 77.1693 429.002 77.5887 429.342 77.94C429.693 78.2913 430.107 78.5633 430.583 78.756C431.07 78.9373 431.603 79.028 432.181 79.028C432.555 79.028 432.918 78.977 433.269 78.875C433.62 78.773 433.943 78.6313 434.238 78.45C434.544 78.2573 434.822 78.0363 435.071 77.787L436.159 79.538C435.887 79.844 435.524 80.1217 435.071 80.371C434.618 80.6203 434.108 80.8187 433.541 80.966C432.986 81.102 432.43 81.17 431.875 81.17ZM439.127 81V69.1H446.913V71.106H441.303V78.994H446.981V81H439.127ZM440.147 75.9V73.928H446.046V75.9H440.147ZM450.432 81V69.1H455.498C456.28 69.1 456.938 69.2133 457.47 69.44C458.014 69.6667 458.422 70.0067 458.694 70.46C458.978 70.902 459.119 71.4403 459.119 72.075C459.119 72.7323 458.944 73.2877 458.592 73.741C458.241 74.1943 457.748 74.506 457.113 74.676L457.096 74.336C457.629 74.4493 458.094 74.6533 458.49 74.948C458.887 75.2313 459.193 75.5883 459.408 76.019C459.635 76.4383 459.748 76.92 459.748 77.464C459.748 78.042 459.652 78.552 459.459 78.994C459.278 79.436 459.006 79.8043 458.643 80.099C458.281 80.3937 457.85 80.6203 457.351 80.779C456.853 80.9263 456.292 81 455.668 81H450.432ZM452.591 79.011H455.566C455.986 79.011 456.337 78.9487 456.62 78.824C456.915 78.6993 457.136 78.518 457.283 78.28C457.442 78.0307 457.521 77.736 457.521 77.396C457.521 77.0787 457.436 76.8067 457.266 76.58C457.108 76.3533 456.875 76.1833 456.569 76.07C456.263 75.9453 455.901 75.883 455.481 75.883H452.591V79.011ZM452.591 73.979H455.294C455.623 73.979 455.906 73.9167 456.144 73.792C456.394 73.6673 456.586 73.4973 456.722 73.282C456.858 73.0667 456.926 72.8173 456.926 72.534C456.926 72.0807 456.773 71.7293 456.467 71.48C456.161 71.2193 455.714 71.089 455.124 71.089H452.591V73.979ZM467.95 81.17C467.1 81.17 466.313 81.017 465.587 80.711C464.862 80.405 464.227 79.98 463.683 79.436C463.151 78.8807 462.737 78.229 462.442 77.481C462.148 76.733 462 75.917 462 75.033C462 74.149 462.148 73.333 462.442 72.585C462.737 71.837 463.151 71.191 463.683 70.647C464.227 70.0917 464.862 69.661 465.587 69.355C466.313 69.049 467.1 68.896 467.95 68.896C468.812 68.896 469.605 69.049 470.33 69.355C471.056 69.661 471.685 70.0917 472.217 70.647C472.75 71.2023 473.164 71.854 473.458 72.602C473.753 73.3387 473.9 74.149 473.9 75.033C473.9 75.9057 473.753 76.716 473.458 77.464C473.164 78.212 472.75 78.8637 472.217 79.419C471.685 79.9743 471.056 80.405 470.33 80.711C469.605 81.017 468.812 81.17 467.95 81.17ZM467.95 79.062C468.494 79.062 468.987 78.9657 469.429 78.773C469.883 78.569 470.274 78.2857 470.602 77.923C470.931 77.549 471.186 77.1183 471.367 76.631C471.56 76.1437 471.656 75.611 471.656 75.033C471.656 74.455 471.56 73.9223 471.367 73.435C471.186 72.9477 470.931 72.5227 470.602 72.16C470.274 71.786 469.883 71.5027 469.429 71.31C468.987 71.106 468.494 71.004 467.95 71.004C467.418 71.004 466.925 71.106 466.471 71.31C466.018 71.5027 465.627 71.7803 465.298 72.143C464.97 72.5057 464.715 72.9307 464.533 73.418C464.352 73.9053 464.261 74.4437 464.261 75.033C464.261 75.611 464.352 76.1493 464.533 76.648C464.715 77.1353 464.97 77.5603 465.298 77.923C465.627 78.2857 466.018 78.569 466.471 78.773C466.925 78.9657 467.418 79.062 467.95 79.062ZM482.111 81.17C481.261 81.17 480.473 81.017 479.748 80.711C479.022 80.405 478.388 79.98 477.844 79.436C477.311 78.8807 476.897 78.229 476.603 77.481C476.308 76.733 476.161 75.917 476.161 75.033C476.161 74.149 476.308 73.333 476.603 72.585C476.897 71.837 477.311 71.191 477.844 70.647C478.388 70.0917 479.022 69.661 479.748 69.355C480.473 69.049 481.261 68.896 482.111 68.896C482.972 68.896 483.765 69.049 484.491 69.355C485.216 69.661 485.845 70.0917 486.378 70.647C486.91 71.2023 487.324 71.854 487.619 72.602C487.913 73.3387 488.061 74.149 488.061 75.033C488.061 75.9057 487.913 76.716 487.619 77.464C487.324 78.212 486.91 78.8637 486.378 79.419C485.845 79.9743 485.216 80.405 484.491 80.711C483.765 81.017 482.972 81.17 482.111 81.17ZM482.111 79.062C482.655 79.062 483.148 78.9657 483.59 78.773C484.043 78.569 484.434 78.2857 484.763 77.923C485.091 77.549 485.346 77.1183 485.528 76.631C485.72 76.1437 485.817 75.611 485.817 75.033C485.817 74.455 485.72 73.9223 485.528 73.435C485.346 72.9477 485.091 72.5227 484.763 72.16C484.434 71.786 484.043 71.5027 483.59 71.31C483.148 71.106 482.655 71.004 482.111 71.004C481.578 71.004 481.085 71.106 480.632 71.31C480.178 71.5027 479.787 71.7803 479.459 72.143C479.13 72.5057 478.875 72.9307 478.694 73.418C478.512 73.9053 478.422 74.4437 478.422 75.033C478.422 75.611 478.512 76.1493 478.694 76.648C478.875 77.1353 479.13 77.5603 479.459 77.923C479.787 78.2857 480.178 78.569 480.632 78.773C481.085 78.9657 481.578 79.062 482.111 79.062ZM492.888 77.447L492.548 75.254L498.668 69.1H501.439L492.888 77.447ZM491.137 81V69.1H493.347V81H491.137ZM498.94 81L494.435 74.999L495.999 73.656L501.626 81H498.94ZM509.979 81V69.1H517.765V71.106H512.155V78.994H517.833V81H509.979ZM510.999 75.9V73.928H516.898V75.9H510.999ZM521.284 81V69.1H523.273L530.175 78.399L529.801 78.467C529.755 78.1497 529.716 77.8267 529.682 77.498C529.648 77.158 529.614 76.8067 529.58 76.444C529.557 76.0813 529.534 75.7017 529.512 75.305C529.5 74.9083 529.489 74.4947 529.478 74.064C529.466 73.622 529.461 73.1573 529.461 72.67V69.1H531.654V81H529.631L522.695 71.837L523.137 71.718C523.193 72.3527 523.239 72.8967 523.273 73.35C523.318 73.792 523.352 74.1773 523.375 74.506C523.397 74.8233 523.414 75.0897 523.426 75.305C523.448 75.5203 523.46 75.7187 523.46 75.9C523.471 76.07 523.477 76.2343 523.477 76.393V81H521.284ZM540.933 81.17C540.038 81.17 539.211 81.017 538.451 80.711C537.692 80.3937 537.029 79.9573 536.462 79.402C535.907 78.8467 535.476 78.2007 535.17 77.464C534.864 76.716 534.711 75.9057 534.711 75.033C534.711 74.1717 534.864 73.3727 535.17 72.636C535.488 71.888 535.93 71.242 536.496 70.698C537.063 70.1427 537.726 69.712 538.485 69.406C539.256 69.1 540.083 68.947 540.967 68.947C541.591 68.947 542.191 69.032 542.769 69.202C543.347 69.372 543.869 69.61 544.333 69.916C544.798 70.222 545.183 70.5677 545.489 70.953L544.095 72.415C543.778 72.109 543.449 71.854 543.109 71.65C542.781 71.446 542.435 71.2873 542.072 71.174C541.71 71.0607 541.336 71.004 540.95 71.004C540.384 71.004 539.857 71.106 539.369 71.31C538.893 71.514 538.474 71.7973 538.111 72.16C537.76 72.5227 537.482 72.9477 537.278 73.435C537.074 73.9223 536.972 74.455 536.972 75.033C536.972 75.5883 537.074 76.1153 537.278 76.614C537.494 77.1127 537.788 77.549 538.162 77.923C538.536 78.297 538.967 78.5917 539.454 78.807C539.953 79.011 540.48 79.113 541.035 79.113C541.455 79.113 541.846 79.0507 542.208 78.926C542.571 78.8013 542.894 78.6313 543.177 78.416C543.461 78.1893 543.676 77.9287 543.823 77.634C543.982 77.3393 544.061 77.022 544.061 76.682V76.308L544.367 76.665H540.848V74.693H546.237C546.26 74.8177 546.277 74.9593 546.288 75.118C546.3 75.2653 546.305 75.4127 546.305 75.56C546.317 75.696 546.322 75.815 546.322 75.917C546.322 76.699 546.186 77.413 545.914 78.059C545.642 78.6937 545.257 79.2433 544.758 79.708C544.271 80.1727 543.699 80.5353 543.041 80.796C542.395 81.0453 541.693 81.17 540.933 81.17ZM547.83 81L552.471 69.1H554.545L559.152 81H556.857L554.307 74.234C554.251 74.098 554.171 73.8827 554.069 73.588C553.979 73.2933 553.877 72.976 553.763 72.636C553.65 72.2847 553.548 71.9617 553.457 71.667C553.367 71.361 553.299 71.14 553.253 71.004L553.678 70.987C553.61 71.2137 553.531 71.4687 553.44 71.752C553.35 72.0353 553.253 72.33 553.151 72.636C553.049 72.942 552.947 73.2367 552.845 73.52C552.755 73.8033 552.67 74.0583 552.59 74.285L550.04 81H547.83ZM549.938 78.28L550.703 76.359H556.126L556.942 78.28H549.938ZM566.781 81.17C565.885 81.17 565.058 81.017 564.299 80.711C563.539 80.3937 562.876 79.9573 562.31 79.402C561.754 78.8467 561.324 78.2007 561.018 77.464C560.712 76.716 560.559 75.9057 560.559 75.033C560.559 74.1717 560.712 73.3727 561.018 72.636C561.335 71.888 561.777 71.242 562.344 70.698C562.91 70.1427 563.573 69.712 564.333 69.406C565.103 69.1 565.931 68.947 566.815 68.947C567.438 68.947 568.039 69.032 568.617 69.202C569.195 69.372 569.716 69.61 570.181 69.916C570.645 70.222 571.031 70.5677 571.337 70.953L569.943 72.415C569.625 72.109 569.297 71.854 568.957 71.65C568.628 71.446 568.282 71.2873 567.92 71.174C567.557 71.0607 567.183 71.004 566.798 71.004C566.231 71.004 565.704 71.106 565.217 71.31C564.741 71.514 564.321 71.7973 563.959 72.16C563.607 72.5227 563.33 72.9477 563.126 73.435C562.922 73.9223 562.82 74.455 562.82 75.033C562.82 75.5883 562.922 76.1153 563.126 76.614C563.341 77.1127 563.636 77.549 564.01 77.923C564.384 78.297 564.814 78.5917 565.302 78.807C565.8 79.011 566.327 79.113 566.883 79.113C567.302 79.113 567.693 79.0507 568.056 78.926C568.418 78.8013 568.741 78.6313 569.025 78.416C569.308 78.1893 569.523 77.9287 569.671 77.634C569.829 77.3393 569.909 77.022 569.909 76.682V76.308L570.215 76.665H566.696V74.693H572.085C572.107 74.8177 572.124 74.9593 572.136 75.118C572.147 75.2653 572.153 75.4127 572.153 75.56C572.164 75.696 572.17 75.815 572.17 75.917C572.17 76.699 572.034 77.413 571.762 78.059C571.49 78.6937 571.104 79.2433 570.606 79.708C570.118 80.1727 569.546 80.5353 568.889 80.796C568.243 81.0453 567.54 81.17 566.781 81.17ZM575.17 81V69.1H582.956V71.106H577.346V78.994H583.024V81H575.17ZM576.19 75.9V73.928H582.089V75.9H576.19ZM586.475 81V69.1H588.566L592.901 76.155L591.677 76.138L596.063 69.1H598.052V81H595.859V76.529C595.859 75.509 595.881 74.591 595.927 73.775C595.983 72.959 596.074 72.1487 596.199 71.344L596.471 72.075L592.782 77.77H591.66L588.09 72.126L588.328 71.344C588.452 72.1033 588.537 72.8853 588.583 73.69C588.639 74.4833 588.668 75.4297 588.668 76.529V81H586.475ZM601.93 81V69.1H609.716V71.106H604.106V78.994H609.784V81H601.93ZM602.95 75.9V73.928H608.849V75.9H602.95ZM613.235 81V69.1H615.224L622.126 78.399L621.752 78.467C621.707 78.1497 621.667 77.8267 621.633 77.498C621.599 77.158 621.565 76.8067 621.531 76.444C621.508 76.0813 621.486 75.7017 621.463 75.305C621.452 74.9083 621.44 74.4947 621.429 74.064C621.418 73.622 621.412 73.1573 621.412 72.67V69.1H623.605V81H621.582L614.646 71.837L615.088 71.718C615.145 72.3527 615.19 72.8967 615.224 73.35C615.269 73.792 615.303 74.1773 615.326 74.506C615.349 74.8233 615.366 75.0897 615.377 75.305C615.4 75.5203 615.411 75.7187 615.411 75.9C615.422 76.07 615.428 76.2343 615.428 76.393V81H613.235ZM629.859 81V71.14H626.459V69.1H635.571V71.14H632.069V81H629.859Z" fill="#2B2B2B"/>
<path d="M406.165 108.265V99.745L406.72 101.02L404.47 102.085L404.035 99.805L407.02 98.35H408.67V108.265H406.165ZM404.245 109V106.75H410.635V109H404.245ZM412.293 109L411.798 107.77L414.858 104.425C415.028 104.235 415.213 104.02 415.413 103.78C415.613 103.54 415.808 103.295 415.998 103.045C416.188 102.785 416.338 102.535 416.448 102.295C416.568 102.055 416.628 101.835 416.628 101.635C416.628 101.435 416.583 101.26 416.493 101.11C416.403 100.96 416.273 100.845 416.103 100.765C415.933 100.675 415.718 100.63 415.458 100.63C415.228 100.63 415.008 100.69 414.798 100.81C414.588 100.92 414.388 101.095 414.198 101.335C414.018 101.575 413.848 101.87 413.688 102.22L411.798 101.2C412.008 100.62 412.303 100.11 412.683 99.67C413.073 99.22 413.528 98.875 414.048 98.635C414.568 98.385 415.123 98.26 415.713 98.26C416.333 98.27 416.893 98.405 417.393 98.665C417.893 98.915 418.288 99.27 418.578 99.73C418.878 100.18 419.028 100.71 419.028 101.32C419.028 101.53 419.003 101.75 418.953 101.98C418.903 102.21 418.828 102.45 418.728 102.7C418.628 102.94 418.493 103.2 418.323 103.48C418.163 103.75 417.968 104.035 417.738 104.335C417.508 104.635 417.238 104.955 416.928 105.295L414.543 107.89L414.243 106.75H419.493V109H412.293ZM423.931 109.15C423.081 109.15 422.336 108.975 421.696 108.625C421.066 108.265 420.491 107.65 419.971 106.78L421.801 105.595C422.021 105.945 422.246 106.225 422.476 106.435C422.716 106.645 422.961 106.8 423.211 106.9C423.471 106.99 423.741 107.035 424.021 107.035C424.301 107.035 424.556 106.975 424.786 106.855C425.026 106.725 425.216 106.545 425.356 106.315C425.506 106.085 425.581 105.825 425.581 105.535C425.581 105.225 425.516 104.965 425.386 104.755C425.266 104.535 425.086 104.37 424.846 104.26C424.616 104.15 424.336 104.095 424.006 104.095C423.856 104.095 423.696 104.115 423.526 104.155C423.356 104.185 423.176 104.23 422.986 104.29C422.796 104.35 422.601 104.43 422.401 104.53L421.846 103.045L424.396 100.27L425.086 100.645L420.706 100.555V98.41H427.156L427.621 99.34L424.156 103.06L423.556 102.355C423.636 102.315 423.766 102.28 423.946 102.25C424.136 102.21 424.316 102.19 424.486 102.19C424.956 102.19 425.396 102.275 425.806 102.445C426.216 102.615 426.581 102.85 426.901 103.15C427.221 103.45 427.471 103.805 427.651 104.215C427.831 104.615 427.921 105.045 427.921 105.505C427.921 106.205 427.741 106.83 427.381 107.38C427.031 107.92 426.551 108.35 425.941 108.67C425.341 108.99 424.671 109.15 423.931 109.15ZM433.543 109.15C432.603 109.15 431.798 108.935 431.128 108.505C430.468 108.075 429.963 107.46 429.613 106.66C429.263 105.85 429.088 104.88 429.088 103.75C429.088 102.62 429.263 101.655 429.613 100.855C429.963 100.045 430.468 99.425 431.128 98.995C431.798 98.565 432.603 98.35 433.543 98.35C434.483 98.35 435.288 98.565 435.958 98.995C436.628 99.425 437.138 100.045 437.488 100.855C437.838 101.655 438.013 102.62 438.013 103.75C438.013 104.88 437.838 105.85 437.488 106.66C437.138 107.46 436.628 108.075 435.958 108.505C435.288 108.935 434.483 109.15 433.543 109.15ZM433.543 106.99C434.193 106.99 434.693 106.71 435.043 106.15C435.403 105.59 435.583 104.79 435.583 103.75C435.583 102.68 435.403 101.86 435.043 101.29C434.693 100.71 434.193 100.42 433.543 100.42C432.893 100.42 432.388 100.71 432.028 101.29C431.678 101.86 431.503 102.68 431.503 103.75C431.503 104.79 431.678 105.59 432.028 106.15C432.388 106.71 432.893 106.99 433.543 106.99Z" fill="#4F4F4F"/>
<path d="M454.104 109V107.5H455.799V100H454.104V98.5H459.114V100H457.419V107.5H459.114V109H454.104ZM461.658 109V98.5H463.113L469.533 107.095L469.293 107.23C469.253 106.98 469.218 106.71 469.188 106.42C469.158 106.12 469.128 105.805 469.098 105.475C469.078 105.135 469.058 104.78 469.038 104.41C469.028 104.03 469.018 103.635 469.007 103.225C468.998 102.815 468.993 102.39 468.993 101.95V98.5H470.613V109H469.128L462.813 100.72L462.978 100.51C463.028 101.12 463.068 101.64 463.098 102.07C463.138 102.49 463.168 102.85 463.188 103.15C463.218 103.44 463.238 103.68 463.248 103.87C463.258 104.05 463.263 104.2 463.263 104.32C463.273 104.44 463.278 104.545 463.278 104.635V109H461.658ZM475.547 109V100.06H472.607V98.5H480.197V100.06H477.167V109H475.547ZM482.195 109V98.5H488.81V100.06H483.815V107.44H488.81V109H482.195ZM482.93 104.395V102.835H487.985V104.395H482.93ZM491.408 109V98.5H495.878C496.478 98.5 497.028 98.65 497.528 98.95C498.038 99.24 498.443 99.64 498.743 100.15C499.043 100.65 499.193 101.215 499.193 101.845C499.193 102.415 499.043 102.945 498.743 103.435C498.443 103.925 498.043 104.32 497.543 104.62C497.043 104.91 496.488 105.055 495.878 105.055H493.028V109H491.408ZM497.648 109L494.978 104.26L496.643 103.885L499.613 109.015L497.648 109ZM493.028 103.495H496.028C496.318 103.495 496.578 103.425 496.808 103.285C497.038 103.135 497.218 102.935 497.348 102.685C497.478 102.425 497.543 102.14 497.543 101.83C497.543 101.48 497.458 101.175 497.288 100.915C497.128 100.645 496.898 100.435 496.598 100.285C496.308 100.135 495.978 100.06 495.608 100.06H493.028V103.495ZM500.743 109L504.808 98.5H506.458L510.493 109H508.768L506.368 102.67C506.338 102.6 506.278 102.43 506.188 102.16C506.108 101.89 506.013 101.59 505.903 101.26C505.793 100.93 505.693 100.63 505.603 100.36C505.513 100.08 505.453 99.9 505.423 99.82L505.768 99.805C505.708 99.975 505.633 100.19 505.543 100.45C505.463 100.71 505.373 100.985 505.273 101.275C505.183 101.565 505.093 101.84 505.003 102.1C504.913 102.35 504.838 102.56 504.778 102.73L502.393 109H500.743ZM502.543 106.39L503.143 104.83H507.913L508.603 106.39H502.543ZM516.308 109.15C515.578 109.15 514.908 109.02 514.298 108.76C513.688 108.5 513.158 108.13 512.708 107.65C512.258 107.16 511.908 106.585 511.658 105.925C511.418 105.265 511.298 104.54 511.298 103.75C511.298 103 511.428 102.305 511.688 101.665C511.958 101.015 512.328 100.445 512.798 99.955C513.268 99.465 513.813 99.085 514.433 98.815C515.053 98.545 515.723 98.41 516.443 98.41C516.953 98.41 517.448 98.49 517.928 98.65C518.418 98.8 518.858 99.015 519.248 99.295C519.648 99.565 519.973 99.875 520.223 100.225L519.143 101.35C518.853 101.06 518.558 100.82 518.258 100.63C517.968 100.43 517.668 100.28 517.358 100.18C517.058 100.08 516.753 100.03 516.443 100.03C515.953 100.03 515.493 100.125 515.063 100.315C514.643 100.495 514.273 100.75 513.953 101.08C513.643 101.41 513.398 101.805 513.218 102.265C513.038 102.715 512.948 103.21 512.948 103.75C512.948 104.32 513.033 104.84 513.203 105.31C513.383 105.77 513.633 106.165 513.953 106.495C514.273 106.825 514.653 107.08 515.093 107.26C515.543 107.43 516.038 107.515 516.578 107.515C516.908 107.515 517.233 107.47 517.553 107.38C517.873 107.29 518.173 107.16 518.453 106.99C518.733 106.82 518.988 106.62 519.218 106.39L520.028 107.71C519.798 107.98 519.483 108.225 519.083 108.445C518.693 108.665 518.253 108.84 517.763 108.97C517.283 109.09 516.798 109.15 516.308 109.15ZM524.224 109V100.06H521.284V98.5H528.874V100.06H525.844V109H524.224ZM530.481 109V107.5H532.176V100H530.481V98.5H535.491V100H533.796V107.5H535.491V109H530.481ZM542.21 109.15C541.47 109.15 540.785 109.015 540.155 108.745C539.535 108.475 538.99 108.1 538.52 107.62C538.06 107.13 537.7 106.56 537.44 105.91C537.19 105.25 537.065 104.53 537.065 103.75C537.065 102.97 537.19 102.255 537.44 101.605C537.7 100.945 538.06 100.375 538.52 99.895C538.99 99.405 539.535 99.025 540.155 98.755C540.785 98.485 541.47 98.35 542.21 98.35C542.95 98.35 543.63 98.485 544.25 98.755C544.88 99.025 545.425 99.405 545.885 99.895C546.355 100.385 546.715 100.96 546.965 101.62C547.225 102.27 547.355 102.98 547.355 103.75C547.355 104.52 547.225 105.235 546.965 105.895C546.715 106.545 546.355 107.115 545.885 107.605C545.425 108.095 544.88 108.475 544.25 108.745C543.63 109.015 542.95 109.15 542.21 109.15ZM542.21 107.575C542.72 107.575 543.185 107.48 543.605 107.29C544.035 107.1 544.405 106.835 544.715 106.495C545.025 106.145 545.265 105.74 545.435 105.28C545.615 104.81 545.705 104.3 545.705 103.75C545.705 103.2 545.615 102.695 545.435 102.235C545.265 101.765 545.025 101.36 544.715 101.02C544.405 100.67 544.035 100.4 543.605 100.21C543.185 100.02 542.72 99.925 542.21 99.925C541.7 99.925 541.23 100.02 540.8 100.21C540.38 100.4 540.01 100.665 539.69 101.005C539.38 101.345 539.14 101.75 538.97 102.22C538.8 102.68 538.715 103.19 538.715 103.75C538.715 104.3 538.8 104.81 538.97 105.28C539.14 105.75 539.38 106.155 539.69 106.495C540.01 106.835 540.38 107.1 540.8 107.29C541.23 107.48 541.7 107.575 542.21 107.575ZM549.548 109V98.5H551.003L557.423 107.095L557.183 107.23C557.143 106.98 557.108 106.71 557.078 106.42C557.048 106.12 557.018 105.805 556.988 105.475C556.968 105.135 556.948 104.78 556.928 104.41C556.918 104.03 556.908 103.635 556.898 103.225C556.888 102.815 556.883 102.39 556.883 101.95V98.5H558.503V109H557.018L550.703 100.72L550.868 100.51C550.918 101.12 550.958 101.64 550.988 102.07C551.028 102.49 551.058 102.85 551.078 103.15C551.108 103.44 551.128 103.68 551.138 103.87C551.148 104.05 551.153 104.2 551.153 104.32C551.163 104.44 551.168 104.545 551.168 104.635V109H549.548ZM564.683 109.15C564.113 109.15 563.583 109.075 563.093 108.925C562.613 108.775 562.173 108.55 561.773 108.25C561.383 107.94 561.033 107.56 560.723 107.11L561.833 105.835C562.323 106.535 562.793 107.02 563.243 107.29C563.693 107.56 564.228 107.695 564.848 107.695C565.228 107.695 565.573 107.635 565.883 107.515C566.193 107.395 566.438 107.23 566.618 107.02C566.798 106.81 566.888 106.57 566.888 106.3C566.888 106.12 566.858 105.95 566.798 105.79C566.738 105.63 566.643 105.485 566.513 105.355C566.393 105.225 566.233 105.105 566.033 104.995C565.843 104.885 565.618 104.79 565.358 104.71C565.098 104.62 564.798 104.545 564.458 104.485C563.918 104.375 563.448 104.23 563.048 104.05C562.648 103.87 562.313 103.645 562.043 103.375C561.773 103.105 561.573 102.8 561.443 102.46C561.313 102.11 561.248 101.72 561.248 101.29C561.248 100.87 561.338 100.48 561.518 100.12C561.708 99.76 561.963 99.45 562.283 99.19C562.613 98.92 562.998 98.715 563.438 98.575C563.878 98.425 564.353 98.35 564.863 98.35C565.403 98.35 565.898 98.42 566.348 98.56C566.798 98.7 567.198 98.91 567.548 99.19C567.898 99.46 568.188 99.795 568.418 100.195L567.278 101.32C567.078 100.99 566.853 100.715 566.603 100.495C566.353 100.265 566.078 100.095 565.778 99.985C565.478 99.865 565.158 99.805 564.818 99.805C564.428 99.805 564.088 99.865 563.798 99.985C563.508 100.105 563.278 100.275 563.108 100.495C562.948 100.705 562.868 100.955 562.868 101.245C562.868 101.455 562.908 101.65 562.988 101.83C563.068 102 563.188 102.155 563.348 102.295C563.518 102.425 563.743 102.545 564.023 102.655C564.303 102.755 564.638 102.845 565.028 102.925C565.578 103.045 566.068 103.2 566.498 103.39C566.928 103.57 567.293 103.785 567.593 104.035C567.893 104.285 568.118 104.565 568.268 104.875C568.428 105.185 568.508 105.52 568.508 105.88C568.508 106.55 568.353 107.13 568.043 107.62C567.733 108.11 567.293 108.49 566.723 108.76C566.153 109.02 565.473 109.15 564.683 109.15Z" fill="#848484"/>
<rect x="217.5" y="201.5" width="205" height="84" stroke="#DADADA" stroke-dasharray="7 7"/>
<path d="M299.584 237V224.4H304.858C305.782 224.4 306.628 224.556 307.396 224.868C308.164 225.168 308.824 225.6 309.376 226.164C309.94 226.728 310.372 227.394 310.672 228.162C310.972 228.93 311.122 229.776 311.122 230.7C311.122 231.624 310.972 232.476 310.672 233.256C310.372 234.024 309.94 234.69 309.376 235.254C308.824 235.806 308.164 236.238 307.396 236.55C306.628 236.85 305.782 237 304.858 237H299.584ZM302.644 234.912L302.23 234.3H304.768C305.272 234.3 305.722 234.216 306.118 234.048C306.514 233.868 306.85 233.622 307.126 233.31C307.414 232.998 307.636 232.62 307.792 232.176C307.948 231.732 308.026 231.24 308.026 230.7C308.026 230.16 307.948 229.668 307.792 229.224C307.636 228.78 307.414 228.402 307.126 228.09C306.85 227.778 306.514 227.538 306.118 227.37C305.722 227.19 305.272 227.1 304.768 227.1H302.176L302.644 226.524V234.912ZM313.182 237V227.442H315.918L316.044 230.556L315.504 229.962C315.648 229.446 315.882 228.984 316.206 228.576C316.542 228.168 316.932 227.844 317.376 227.604C317.82 227.364 318.294 227.244 318.798 227.244C319.014 227.244 319.212 227.262 319.392 227.298C319.584 227.334 319.758 227.376 319.914 227.424L319.122 230.61C318.99 230.526 318.81 230.46 318.582 230.412C318.366 230.352 318.138 230.322 317.898 230.322C317.634 230.322 317.388 230.37 317.16 230.466C316.932 230.55 316.74 230.676 316.584 230.844C316.428 231.012 316.302 231.21 316.206 231.438C316.122 231.666 316.08 231.924 316.08 232.212V237H313.182ZM324.497 237.162C323.693 237.162 322.973 236.952 322.337 236.532C321.713 236.1 321.215 235.512 320.843 234.768C320.471 234.012 320.285 233.16 320.285 232.212C320.285 231.24 320.471 230.382 320.843 229.638C321.215 228.894 321.725 228.312 322.373 227.892C323.021 227.46 323.759 227.244 324.587 227.244C325.043 227.244 325.457 227.31 325.829 227.442C326.213 227.574 326.549 227.76 326.837 228C327.125 228.228 327.371 228.498 327.575 228.81C327.779 229.11 327.929 229.434 328.025 229.782L327.431 229.71V227.442H330.293V237H327.377V234.696L328.025 234.678C327.929 235.014 327.773 235.332 327.557 235.632C327.341 235.932 327.077 236.196 326.765 236.424C326.453 236.652 326.105 236.832 325.721 236.964C325.337 237.096 324.929 237.162 324.497 237.162ZM325.289 234.732C325.733 234.732 326.117 234.63 326.441 234.426C326.765 234.222 327.017 233.934 327.197 233.562C327.377 233.178 327.467 232.728 327.467 232.212C327.467 231.696 327.377 231.252 327.197 230.88C327.017 230.496 326.765 230.202 326.441 229.998C326.117 229.782 325.733 229.674 325.289 229.674C324.857 229.674 324.479 229.782 324.155 229.998C323.843 230.202 323.597 230.496 323.417 230.88C323.237 231.252 323.147 231.696 323.147 232.212C323.147 232.728 323.237 233.178 323.417 233.562C323.597 233.934 323.843 234.222 324.155 234.426C324.479 234.63 324.857 234.732 325.289 234.732ZM337.209 241.14C336.429 241.14 335.649 241.026 334.869 240.798C334.101 240.57 333.477 240.276 332.997 239.916L334.005 237.9C334.257 238.068 334.533 238.212 334.833 238.332C335.145 238.464 335.469 238.566 335.805 238.638C336.141 238.71 336.483 238.746 336.831 238.746C337.443 238.746 337.941 238.656 338.325 238.476C338.709 238.296 338.997 238.02 339.189 237.648C339.381 237.288 339.477 236.832 339.477 236.28V234.678L340.035 234.768C339.951 235.164 339.741 235.524 339.405 235.848C339.081 236.172 338.679 236.436 338.199 236.64C337.719 236.832 337.209 236.928 336.669 236.928C335.805 236.928 335.031 236.73 334.347 236.334C333.675 235.926 333.141 235.368 332.745 234.66C332.361 233.94 332.169 233.112 332.169 232.176C332.169 231.216 332.361 230.37 332.745 229.638C333.129 228.894 333.657 228.312 334.329 227.892C335.001 227.46 335.757 227.244 336.597 227.244C336.957 227.244 337.299 227.286 337.623 227.37C337.959 227.454 338.265 227.568 338.541 227.712C338.829 227.844 339.081 228.006 339.297 228.198C339.525 228.378 339.705 228.576 339.837 228.792C339.981 229.008 340.077 229.23 340.125 229.458L339.531 229.602L339.639 227.442H342.375V236.226C342.375 237.006 342.255 237.696 342.015 238.296C341.787 238.908 341.445 239.424 340.989 239.844C340.545 240.276 340.005 240.6 339.369 240.816C338.733 241.032 338.013 241.14 337.209 241.14ZM337.281 234.696C337.749 234.696 338.151 234.594 338.487 234.39C338.835 234.174 339.099 233.88 339.279 233.508C339.471 233.136 339.567 232.698 339.567 232.194C339.567 231.69 339.471 231.252 339.279 230.88C339.099 230.496 338.835 230.202 338.487 229.998C338.151 229.782 337.749 229.674 337.281 229.674C336.825 229.674 336.429 229.782 336.093 229.998C335.757 230.202 335.493 230.496 335.301 230.88C335.121 231.252 335.031 231.69 335.031 232.194C335.031 232.698 335.121 233.136 335.301 233.508C335.493 233.88 335.757 234.174 336.093 234.39C336.429 234.594 336.825 234.696 337.281 234.696ZM359.803 237L358.543 235.704L357.463 234.696L354.817 231.888C354.349 231.384 353.953 230.928 353.629 230.52C353.305 230.1 353.047 229.716 352.855 229.368C352.675 229.008 352.543 228.672 352.459 228.36C352.375 228.048 352.333 227.76 352.333 227.496C352.333 226.848 352.501 226.272 352.837 225.768C353.185 225.252 353.659 224.85 354.259 224.562C354.871 224.262 355.573 224.112 356.365 224.112C356.977 224.112 357.547 224.214 358.075 224.418C358.603 224.61 359.059 224.886 359.443 225.246C359.827 225.606 360.097 226.026 360.253 226.506L357.985 227.856C357.781 227.364 357.559 227.028 357.319 226.848C357.079 226.668 356.797 226.578 356.473 226.578C356.209 226.578 355.987 226.62 355.807 226.704C355.627 226.788 355.489 226.914 355.393 227.082C355.297 227.238 355.249 227.436 355.249 227.676C355.249 227.904 355.339 228.186 355.519 228.522C355.711 228.846 355.951 229.188 356.239 229.548C356.527 229.896 356.821 230.232 357.121 230.556C357.421 230.868 357.691 231.138 357.931 231.366L359.263 232.824L360.505 233.958L363.367 237H359.803ZM355.249 237.18C354.301 237.18 353.449 237 352.693 236.64C351.949 236.28 351.355 235.788 350.911 235.164C350.479 234.54 350.263 233.844 350.263 233.076C350.263 232.2 350.515 231.414 351.019 230.718C351.535 230.01 352.291 229.476 353.287 229.116L355.087 230.862C354.415 231.006 353.911 231.246 353.575 231.582C353.239 231.918 353.071 232.344 353.071 232.86C353.071 233.268 353.167 233.622 353.359 233.922C353.551 234.222 353.833 234.456 354.205 234.624C354.577 234.78 355.021 234.858 355.537 234.858C356.017 234.858 356.461 234.762 356.869 234.57C357.289 234.366 357.661 234.084 357.985 233.724C358.321 233.364 358.591 232.938 358.795 232.446C358.999 231.942 359.137 231.384 359.209 230.772H361.891C361.783 231.54 361.597 232.254 361.333 232.914C361.069 233.562 360.733 234.15 360.325 234.678C359.929 235.206 359.467 235.656 358.939 236.028C358.423 236.4 357.853 236.688 357.229 236.892C356.617 237.084 355.957 237.18 355.249 237.18ZM370.688 237V224.4H375.962C376.886 224.4 377.732 224.556 378.5 224.868C379.268 225.168 379.928 225.6 380.48 226.164C381.044 226.728 381.476 227.394 381.776 228.162C382.076 228.93 382.226 229.776 382.226 230.7C382.226 231.624 382.076 232.476 381.776 233.256C381.476 234.024 381.044 234.69 380.48 235.254C379.928 235.806 379.268 236.238 378.5 236.55C377.732 236.85 376.886 237 375.962 237H370.688ZM373.748 234.912L373.334 234.3H375.872C376.376 234.3 376.826 234.216 377.222 234.048C377.618 233.868 377.954 233.622 378.23 233.31C378.518 232.998 378.74 232.62 378.896 232.176C379.052 231.732 379.13 231.24 379.13 230.7C379.13 230.16 379.052 229.668 378.896 229.224C378.74 228.78 378.518 228.402 378.23 228.09C377.954 227.778 377.618 227.538 377.222 227.37C376.826 227.19 376.376 227.1 375.872 227.1H373.28L373.748 226.524V234.912ZM384.286 237V227.442H387.022L387.148 230.556L386.608 229.962C386.752 229.446 386.986 228.984 387.31 228.576C387.646 228.168 388.036 227.844 388.48 227.604C388.924 227.364 389.398 227.244 389.902 227.244C390.118 227.244 390.316 227.262 390.496 227.298C390.688 227.334 390.862 227.376 391.018 227.424L390.226 230.61C390.094 230.526 389.914 230.46 389.686 230.412C389.47 230.352 389.242 230.322 389.002 230.322C388.738 230.322 388.492 230.37 388.264 230.466C388.036 230.55 387.844 230.676 387.688 230.844C387.532 231.012 387.406 231.21 387.31 231.438C387.226 231.666 387.184 231.924 387.184 232.212V237H384.286ZM396.573 237.18C395.577 237.18 394.689 236.964 393.909 236.532C393.141 236.1 392.529 235.512 392.073 234.768C391.629 234.024 391.407 233.172 391.407 232.212C391.407 231.252 391.629 230.4 392.073 229.656C392.529 228.912 393.141 228.324 393.909 227.892C394.689 227.46 395.577 227.244 396.573 227.244C397.569 227.244 398.451 227.46 399.219 227.892C399.999 228.324 400.611 228.912 401.055 229.656C401.499 230.4 401.721 231.252 401.721 232.212C401.721 233.172 401.499 234.024 401.055 234.768C400.611 235.512 399.999 236.1 399.219 236.532C398.451 236.964 397.569 237.18 396.573 237.18ZM396.573 234.696C397.005 234.696 397.389 234.588 397.725 234.372C398.061 234.156 398.325 233.862 398.517 233.49C398.709 233.118 398.799 232.692 398.787 232.212C398.799 231.732 398.709 231.306 398.517 230.934C398.325 230.55 398.061 230.25 397.725 230.034C397.389 229.818 397.005 229.71 396.573 229.71C396.141 229.71 395.751 229.818 395.403 230.034C395.067 230.25 394.803 230.55 394.611 230.934C394.419 231.306 394.329 231.732 394.341 232.212C394.329 232.692 394.419 233.118 394.611 233.49C394.803 233.862 395.067 234.156 395.403 234.372C395.751 234.588 396.141 234.696 396.573 234.696ZM403.604 240.96V227.442H406.34L406.448 229.584L405.908 229.422C405.992 229.026 406.196 228.666 406.52 228.342C406.844 228.018 407.252 227.76 407.744 227.568C408.248 227.364 408.776 227.262 409.328 227.262C410.144 227.262 410.87 227.478 411.506 227.91C412.142 228.33 412.64 228.912 413 229.656C413.372 230.388 413.558 231.24 413.558 232.212C413.558 233.172 413.372 234.024 413 234.768C412.64 235.512 412.136 236.1 411.488 236.532C410.852 236.952 410.12 237.162 409.292 237.162C408.752 237.162 408.236 237.06 407.744 236.856C407.252 236.652 406.838 236.376 406.502 236.028C406.166 235.68 405.944 235.302 405.836 234.894L406.502 234.642V240.96H403.604ZM408.59 234.732C409.022 234.732 409.4 234.63 409.724 234.426C410.048 234.21 410.3 233.916 410.48 233.544C410.66 233.172 410.75 232.728 410.75 232.212C410.75 231.708 410.66 231.27 410.48 230.898C410.3 230.514 410.048 230.22 409.724 230.016C409.412 229.8 409.034 229.692 408.59 229.692C408.146 229.692 407.762 229.794 407.438 229.998C407.114 230.202 406.862 230.496 406.682 230.88C406.502 231.264 406.412 231.708 406.412 232.212C406.412 232.728 406.502 233.172 406.682 233.544C406.862 233.916 407.114 234.21 407.438 234.426C407.762 234.63 408.146 234.732 408.59 234.732Z" fill="#220022"/>
<path d="M301.17 256.1C300.63 256.1 300.147 255.983 299.72 255.75C299.3 255.51 298.967 255.183 298.72 254.77C298.48 254.357 298.36 253.883 298.36 253.35C298.36 252.817 298.48 252.347 298.72 251.94C298.967 251.527 299.3 251.2 299.72 250.96C300.147 250.72 300.63 250.6 301.17 250.6C301.703 250.6 302.18 250.72 302.6 250.96C303.027 251.2 303.36 251.527 303.6 251.94C303.84 252.347 303.96 252.817 303.96 253.35C303.96 253.883 303.84 254.357 303.6 254.77C303.36 255.183 303.027 255.51 302.6 255.75C302.18 255.983 301.703 256.1 301.17 256.1ZM301.17 254.86C301.43 254.86 301.663 254.797 301.87 254.67C302.077 254.537 302.237 254.357 302.35 254.13C302.47 253.897 302.53 253.637 302.53 253.35C302.53 253.057 302.47 252.797 302.35 252.57C302.237 252.337 302.077 252.157 301.87 252.03C301.663 251.897 301.43 251.83 301.17 251.83C300.903 251.83 300.667 251.897 300.46 252.03C300.253 252.163 300.09 252.343 299.97 252.57C299.85 252.797 299.793 253.057 299.8 253.35C299.793 253.637 299.85 253.897 299.97 254.13C300.09 254.357 300.253 254.537 300.46 254.67C300.667 254.797 300.903 254.86 301.17 254.86ZM305.028 256V250.71H306.398L306.448 252.41L306.208 252.06C306.288 251.787 306.418 251.54 306.598 251.32C306.778 251.093 306.988 250.917 307.228 250.79C307.475 250.663 307.732 250.6 307.998 250.6C308.112 250.6 308.222 250.61 308.328 250.63C308.435 250.65 308.525 250.673 308.598 250.7L308.218 252.26C308.138 252.22 308.042 252.187 307.928 252.16C307.815 252.127 307.698 252.11 307.578 252.11C307.418 252.11 307.268 252.14 307.128 252.2C306.995 252.253 306.878 252.333 306.778 252.44C306.678 252.54 306.598 252.66 306.538 252.8C306.485 252.94 306.458 253.093 306.458 253.26V256H305.028Z" fill="black"/>
<path d="M315.53 256.1C315.296 256.1 315.07 256.067 314.85 256C314.63 255.933 314.43 255.843 314.25 255.73C314.07 255.61 313.92 255.477 313.8 255.33C313.68 255.177 313.603 255.02 313.57 254.86L313.89 254.74L313.82 255.98H312.48V248.6H313.9V251.95L313.63 251.84C313.67 251.68 313.746 251.527 313.86 251.38C313.973 251.227 314.116 251.093 314.29 250.98C314.463 250.86 314.653 250.767 314.86 250.7C315.066 250.633 315.28 250.6 315.5 250.6C315.96 250.6 316.37 250.72 316.73 250.96C317.09 251.193 317.373 251.517 317.58 251.93C317.793 252.343 317.9 252.817 317.9 253.35C317.9 253.883 317.796 254.357 317.59 254.77C317.383 255.183 317.1 255.51 316.74 255.75C316.386 255.983 315.983 256.1 315.53 256.1ZM315.19 254.89C315.456 254.89 315.686 254.827 315.88 254.7C316.08 254.567 316.236 254.387 316.35 254.16C316.463 253.927 316.52 253.657 316.52 253.35C316.52 253.05 316.463 252.783 316.35 252.55C316.243 252.317 316.09 252.137 315.89 252.01C315.69 251.883 315.456 251.82 315.19 251.82C314.923 251.82 314.69 251.883 314.49 252.01C314.29 252.137 314.133 252.317 314.02 252.55C313.906 252.783 313.85 253.05 313.85 253.35C313.85 253.657 313.906 253.927 314.02 254.16C314.133 254.387 314.29 254.567 314.49 254.7C314.69 254.827 314.923 254.89 315.19 254.89ZM318.974 256V250.71H320.344L320.394 252.41L320.154 252.06C320.234 251.787 320.364 251.54 320.544 251.32C320.724 251.093 320.934 250.917 321.174 250.79C321.42 250.663 321.677 250.6 321.944 250.6C322.057 250.6 322.167 250.61 322.274 250.63C322.38 250.65 322.47 250.673 322.544 250.7L322.164 252.26C322.084 252.22 321.987 252.187 321.874 252.16C321.76 252.127 321.644 252.11 321.524 252.11C321.364 252.11 321.214 252.14 321.074 252.2C320.94 252.253 320.824 252.333 320.724 252.44C320.624 252.54 320.544 252.66 320.484 252.8C320.43 252.94 320.404 253.093 320.404 253.26V256H318.974ZM325.594 256.1C325.054 256.1 324.57 255.983 324.144 255.75C323.724 255.51 323.39 255.183 323.144 254.77C322.904 254.357 322.784 253.883 322.784 253.35C322.784 252.817 322.904 252.347 323.144 251.94C323.39 251.527 323.724 251.2 324.144 250.96C324.57 250.72 325.054 250.6 325.594 250.6C326.127 250.6 326.604 250.72 327.024 250.96C327.45 251.2 327.784 251.527 328.024 251.94C328.264 252.347 328.384 252.817 328.384 253.35C328.384 253.883 328.264 254.357 328.024 254.77C327.784 255.183 327.45 255.51 327.024 255.75C326.604 255.983 326.127 256.1 325.594 256.1ZM325.594 254.86C325.854 254.86 326.087 254.797 326.294 254.67C326.5 254.537 326.66 254.357 326.774 254.13C326.894 253.897 326.954 253.637 326.954 253.35C326.954 253.057 326.894 252.797 326.774 252.57C326.66 252.337 326.5 252.157 326.294 252.03C326.087 251.897 325.854 251.83 325.594 251.83C325.327 251.83 325.09 251.897 324.884 252.03C324.677 252.163 324.514 252.343 324.394 252.57C324.274 252.797 324.217 253.057 324.224 253.35C324.217 253.637 324.274 253.897 324.394 254.13C324.514 254.357 324.677 254.537 324.884 254.67C325.09 254.797 325.327 254.86 325.594 254.86ZM330.467 256L328.697 250.71H330.177L331.257 254.31L331.037 254.28L332.227 251.47H333.067L334.307 254.29L334.067 254.31L335.147 250.71H336.627L334.827 256H333.797L332.547 252.99L332.707 253.01L331.487 256H330.467ZM339.22 256.1C338.727 256.1 338.287 256.02 337.9 255.86C337.52 255.693 337.214 255.467 336.98 255.18L337.86 254.42C338.067 254.64 338.297 254.8 338.55 254.9C338.804 254.993 339.057 255.04 339.31 255.04C339.41 255.04 339.5 255.03 339.58 255.01C339.667 254.983 339.74 254.95 339.8 254.91C339.86 254.863 339.904 254.81 339.93 254.75C339.964 254.683 339.98 254.613 339.98 254.54C339.98 254.393 339.92 254.277 339.8 254.19C339.734 254.157 339.63 254.117 339.49 254.07C339.35 254.017 339.17 253.96 338.95 253.9C338.61 253.813 338.32 253.713 338.08 253.6C337.847 253.48 337.66 253.347 337.52 253.2C337.4 253.06 337.307 252.91 337.24 252.75C337.18 252.583 337.15 252.4 337.15 252.2C337.15 251.96 337.204 251.743 337.31 251.55C337.417 251.35 337.564 251.18 337.75 251.04C337.944 250.9 338.164 250.793 338.41 250.72C338.657 250.64 338.917 250.6 339.19 250.6C339.464 250.6 339.73 250.633 339.99 250.7C340.25 250.767 340.49 250.863 340.71 250.99C340.937 251.11 341.134 251.253 341.3 251.42L340.54 252.26C340.42 252.147 340.284 252.043 340.13 251.95C339.984 251.857 339.83 251.783 339.67 251.73C339.51 251.677 339.367 251.65 339.24 251.65C339.127 251.65 339.024 251.66 338.93 251.68C338.844 251.7 338.77 251.73 338.71 251.77C338.65 251.81 338.604 251.863 338.57 251.93C338.544 251.99 338.53 252.057 338.53 252.13C338.53 252.203 338.547 252.273 338.58 252.34C338.62 252.407 338.674 252.463 338.74 252.51C338.814 252.55 338.92 252.597 339.06 252.65C339.207 252.703 339.404 252.763 339.65 252.83C339.97 252.917 340.24 253.013 340.46 253.12C340.687 253.227 340.867 253.35 341 253.49C341.114 253.61 341.197 253.747 341.25 253.9C341.304 254.053 341.33 254.223 341.33 254.41C341.33 254.737 341.237 255.03 341.05 255.29C340.87 255.543 340.62 255.743 340.3 255.89C339.98 256.03 339.62 256.1 339.22 256.1ZM344.853 256.1C344.279 256.1 343.779 255.983 343.353 255.75C342.926 255.517 342.593 255.197 342.353 254.79C342.113 254.383 341.993 253.917 341.993 253.39C341.993 252.983 342.059 252.61 342.193 252.27C342.326 251.93 342.513 251.637 342.753 251.39C342.993 251.137 343.276 250.943 343.603 250.81C343.936 250.67 344.296 250.6 344.683 250.6C345.043 250.6 345.376 250.667 345.683 250.8C345.989 250.927 346.253 251.11 346.473 251.35C346.699 251.583 346.873 251.86 346.993 252.18C347.113 252.5 347.166 252.85 347.153 253.23L347.143 253.67H342.893L342.663 252.8H345.973L345.813 252.98V252.76C345.799 252.58 345.739 252.417 345.633 252.27C345.533 252.123 345.403 252.01 345.243 251.93C345.083 251.85 344.903 251.81 344.703 251.81C344.409 251.81 344.159 251.867 343.953 251.98C343.753 252.093 343.599 252.26 343.493 252.48C343.386 252.7 343.333 252.967 343.333 253.28C343.333 253.6 343.399 253.877 343.533 254.11C343.673 254.343 343.866 254.527 344.113 254.66C344.366 254.787 344.663 254.85 345.003 254.85C345.236 254.85 345.449 254.813 345.643 254.74C345.836 254.667 346.043 254.54 346.263 254.36L346.943 255.31C346.749 255.483 346.536 255.63 346.303 255.75C346.069 255.863 345.829 255.95 345.583 256.01C345.336 256.07 345.093 256.1 344.853 256.1ZM351.679 256V250.34C351.679 250.013 351.752 249.717 351.899 249.45C352.045 249.183 352.245 248.973 352.499 248.82C352.759 248.667 353.062 248.59 353.409 248.59C353.642 248.59 353.862 248.63 354.069 248.71C354.275 248.783 354.452 248.887 354.599 249.02L354.179 250.06C354.092 250.007 354.002 249.963 353.909 249.93C353.822 249.89 353.742 249.87 353.669 249.87C353.542 249.87 353.435 249.893 353.349 249.94C353.269 249.98 353.209 250.043 353.169 250.13C353.129 250.21 353.109 250.313 353.109 250.44V256H352.399C352.245 256 352.109 256 351.989 256C351.869 256 351.765 256 351.679 256ZM350.889 252.04V250.84H354.249V252.04H350.889ZM357.459 256.1C356.919 256.1 356.436 255.983 356.009 255.75C355.589 255.51 355.256 255.183 355.009 254.77C354.769 254.357 354.649 253.883 354.649 253.35C354.649 252.817 354.769 252.347 355.009 251.94C355.256 251.527 355.589 251.2 356.009 250.96C356.436 250.72 356.919 250.6 357.459 250.6C357.992 250.6 358.469 250.72 358.889 250.96C359.316 251.2 359.649 251.527 359.889 251.94C360.129 252.347 360.249 252.817 360.249 253.35C360.249 253.883 360.129 254.357 359.889 254.77C359.649 255.183 359.316 255.51 358.889 255.75C358.469 255.983 357.992 256.1 357.459 256.1ZM357.459 254.86C357.719 254.86 357.952 254.797 358.159 254.67C358.366 254.537 358.526 254.357 358.639 254.13C358.759 253.897 358.819 253.637 358.819 253.35C358.819 253.057 358.759 252.797 358.639 252.57C358.526 252.337 358.366 252.157 358.159 252.03C357.952 251.897 357.719 251.83 357.459 251.83C357.192 251.83 356.956 251.897 356.749 252.03C356.542 252.163 356.379 252.343 356.259 252.57C356.139 252.797 356.082 253.057 356.089 253.35C356.082 253.637 356.139 253.897 356.259 254.13C356.379 254.357 356.542 254.537 356.749 254.67C356.956 254.797 357.192 254.86 357.459 254.86ZM361.317 256V250.71H362.687L362.737 252.41L362.497 252.06C362.577 251.787 362.707 251.54 362.887 251.32C363.067 251.093 363.277 250.917 363.517 250.79C363.764 250.663 364.021 250.6 364.287 250.6C364.401 250.6 364.511 250.61 364.617 250.63C364.724 250.65 364.814 250.673 364.887 250.7L364.507 252.26C364.427 252.22 364.331 252.187 364.217 252.16C364.104 252.127 363.987 252.11 363.867 252.11C363.707 252.11 363.557 252.14 363.417 252.2C363.284 252.253 363.167 252.333 363.067 252.44C362.967 252.54 362.887 252.66 362.827 252.8C362.774 252.94 362.747 253.093 362.747 253.26V256H361.317ZM370.749 256.1C370.309 256.1 369.912 255.98 369.559 255.74C369.205 255.5 368.925 255.173 368.719 254.76C368.512 254.347 368.409 253.873 368.409 253.34C368.409 252.807 368.512 252.337 368.719 251.93C368.932 251.517 369.219 251.193 369.579 250.96C369.939 250.72 370.349 250.6 370.809 250.6C371.069 250.6 371.305 250.64 371.519 250.72C371.739 250.793 371.929 250.897 372.089 251.03C372.255 251.163 372.395 251.317 372.509 251.49C372.622 251.663 372.702 251.85 372.749 252.05L372.449 252V250.71H373.859V256H372.429V254.73L372.749 254.7C372.695 254.887 372.609 255.063 372.489 255.23C372.369 255.397 372.219 255.547 372.039 255.68C371.865 255.807 371.669 255.91 371.449 255.99C371.229 256.063 370.995 256.1 370.749 256.1ZM371.139 254.87C371.405 254.87 371.639 254.807 371.839 254.68C372.039 254.553 372.192 254.377 372.299 254.15C372.412 253.917 372.469 253.647 372.469 253.34C372.469 253.04 372.412 252.777 372.299 252.55C372.192 252.323 372.039 252.147 371.839 252.02C371.639 251.887 371.405 251.82 371.139 251.82C370.879 251.82 370.649 251.887 370.449 252.02C370.255 252.147 370.102 252.323 369.989 252.55C369.875 252.777 369.819 253.04 369.819 253.34C369.819 253.647 369.875 253.917 369.989 254.15C370.102 254.377 370.255 254.553 370.449 254.68C370.649 254.807 370.879 254.87 371.139 254.87ZM378.759 256V250.34C378.759 250.013 378.832 249.717 378.979 249.45C379.125 249.183 379.325 248.973 379.579 248.82C379.839 248.667 380.142 248.59 380.489 248.59C380.722 248.59 380.942 248.63 381.149 248.71C381.355 248.783 381.532 248.887 381.679 249.02L381.259 250.06C381.172 250.007 381.082 249.963 380.989 249.93C380.902 249.89 380.822 249.87 380.749 249.87C380.622 249.87 380.515 249.893 380.429 249.94C380.349 249.98 380.289 250.043 380.249 250.13C380.209 250.21 380.189 250.313 380.189 250.44V256H379.479C379.325 256 379.189 256 379.069 256C378.949 256 378.845 256 378.759 256ZM377.969 252.04V250.84H381.329V252.04H377.969ZM382.399 256V250.71H383.819V256H382.399ZM383.099 249.62C382.825 249.62 382.612 249.553 382.459 249.42C382.305 249.287 382.229 249.097 382.229 248.85C382.229 248.623 382.305 248.44 382.459 248.3C382.619 248.153 382.832 248.08 383.099 248.08C383.372 248.08 383.585 248.15 383.739 248.29C383.892 248.423 383.969 248.61 383.969 248.85C383.969 249.083 383.889 249.27 383.729 249.41C383.575 249.55 383.365 249.62 383.099 249.62ZM385.351 256V248.6H386.771V256H385.351ZM390.624 256.1C390.051 256.1 389.551 255.983 389.124 255.75C388.698 255.517 388.364 255.197 388.124 254.79C387.884 254.383 387.764 253.917 387.764 253.39C387.764 252.983 387.831 252.61 387.964 252.27C388.098 251.93 388.284 251.637 388.524 251.39C388.764 251.137 389.048 250.943 389.374 250.81C389.708 250.67 390.068 250.6 390.454 250.6C390.814 250.6 391.148 250.667 391.454 250.8C391.761 250.927 392.024 251.11 392.244 251.35C392.471 251.583 392.644 251.86 392.764 252.18C392.884 252.5 392.938 252.85 392.924 253.23L392.914 253.67H388.664L388.434 252.8H391.744L391.584 252.98V252.76C391.571 252.58 391.511 252.417 391.404 252.27C391.304 252.123 391.174 252.01 391.014 251.93C390.854 251.85 390.674 251.81 390.474 251.81C390.181 251.81 389.931 251.867 389.724 251.98C389.524 252.093 389.371 252.26 389.264 252.48C389.158 252.7 389.104 252.967 389.104 253.28C389.104 253.6 389.171 253.877 389.304 254.11C389.444 254.343 389.638 254.527 389.884 254.66C390.138 254.787 390.434 254.85 390.774 254.85C391.008 254.85 391.221 254.813 391.414 254.74C391.608 254.667 391.814 254.54 392.034 254.36L392.714 255.31C392.521 255.483 392.308 255.63 392.074 255.75C391.841 255.863 391.601 255.95 391.354 256.01C391.108 256.07 390.864 256.1 390.624 256.1Z" fill="#5EDC89"/>
<path d="M281.5 224.09H248.5C247.395 224.09 246.5 224.986 246.5 226.09V255.91C246.5 257.015 247.395 257.91 248.5 257.91H281.5C282.605 257.91 283.5 257.015 283.5 255.91V226.09C283.5 224.986 282.605 224.09 281.5 224.09Z" stroke="#202020" stroke-width="2" stroke-linecap="round" stroke-linejoin="round"/>
<path d="M250.597 252.65C258.699 233.38 269.777 245.014 277.017 252.834C277.575 253.437 279.463 251.428 279.463 251.428" stroke="#202020" stroke-width="2" stroke-linecap="round" stroke-linejoin="round"/>
<path d="M272.766 238.068C274.356 238.068 275.644 236.779 275.644 235.19C275.644 233.601 274.356 232.312 272.766 232.312C271.177 232.312 269.888 233.601 269.888 235.19C269.888 236.779 271.177 238.068 272.766 238.068Z" stroke="#202020" stroke-width="2" stroke-linecap="round" stroke-linejoin="round"/>
<g filter="url(#filter1_d_47_277)">
<rect x="328" y="313" width="343" height="79" rx="2.63333" fill="white"/>
</g>
<path d="M403.544 359L408.54 346.097H410.567L415.526 359H413.406L410.457 351.221C410.42 351.135 410.346 350.926 410.236 350.594C410.137 350.263 410.021 349.894 409.885 349.488C409.75 349.083 409.627 348.714 409.517 348.382C409.406 348.038 409.332 347.817 409.296 347.719L409.719 347.7C409.646 347.909 409.554 348.173 409.443 348.493C409.345 348.813 409.234 349.15 409.111 349.507C409.001 349.863 408.89 350.201 408.779 350.521C408.669 350.828 408.577 351.086 408.503 351.295L405.572 359H403.544ZM405.756 355.793L406.494 353.876H412.355L413.203 355.793H405.756ZM420.995 359.184C420.11 359.184 419.317 358.969 418.617 358.539C417.928 358.097 417.382 357.501 416.976 356.751C416.571 355.989 416.368 355.123 416.368 354.152C416.368 353.181 416.564 352.321 416.958 351.571C417.363 350.809 417.91 350.213 418.598 349.783C419.286 349.341 420.067 349.12 420.939 349.12C421.418 349.12 421.879 349.2 422.322 349.359C422.776 349.507 423.182 349.716 423.538 349.986C423.895 350.244 424.171 350.533 424.368 350.852C424.577 351.16 424.681 351.473 424.681 351.793L424.128 351.829V345.359H426.027V359H424.128V356.696H424.497C424.497 356.991 424.399 357.286 424.202 357.581C424.005 357.863 423.741 358.127 423.409 358.373C423.09 358.619 422.715 358.816 422.285 358.963C421.867 359.111 421.437 359.184 420.995 359.184ZM421.253 357.544C421.83 357.544 422.34 357.396 422.783 357.101C423.225 356.806 423.569 356.407 423.815 355.903C424.073 355.387 424.202 354.803 424.202 354.152C424.202 353.501 424.073 352.923 423.815 352.419C423.569 351.903 423.225 351.498 422.783 351.203C422.34 350.908 421.83 350.76 421.253 350.76C420.675 350.76 420.165 350.908 419.723 351.203C419.28 351.498 418.93 351.903 418.672 352.419C418.426 352.923 418.303 353.501 418.303 354.152C418.303 354.803 418.426 355.387 418.672 355.903C418.93 356.407 419.28 356.806 419.723 357.101C420.165 357.396 420.675 357.544 421.253 357.544ZM432.677 359.184C431.793 359.184 431 358.969 430.299 358.539C429.611 358.097 429.064 357.501 428.659 356.751C428.253 355.989 428.051 355.123 428.051 354.152C428.051 353.181 428.247 352.321 428.64 351.571C429.046 350.809 429.593 350.213 430.281 349.783C430.969 349.341 431.75 349.12 432.622 349.12C433.101 349.12 433.562 349.2 434.005 349.359C434.459 349.507 434.865 349.716 435.221 349.986C435.578 350.244 435.854 350.533 436.051 350.852C436.26 351.16 436.364 351.473 436.364 351.793L435.811 351.829V345.359H437.71V359H435.811V356.696H436.18C436.18 356.991 436.081 357.286 435.885 357.581C435.688 357.863 435.424 358.127 435.092 358.373C434.773 358.619 434.398 358.816 433.968 358.963C433.55 359.111 433.12 359.184 432.677 359.184ZM432.935 357.544C433.513 357.544 434.023 357.396 434.465 357.101C434.908 356.806 435.252 356.407 435.498 355.903C435.756 355.387 435.885 354.803 435.885 354.152C435.885 353.501 435.756 352.923 435.498 352.419C435.252 351.903 434.908 351.498 434.465 351.203C434.023 350.908 433.513 350.76 432.935 350.76C432.358 350.76 431.848 350.908 431.405 351.203C430.963 351.498 430.613 351.903 430.355 352.419C430.109 352.923 429.986 353.501 429.986 354.152C429.986 354.803 430.109 355.387 430.355 355.903C430.613 356.407 430.963 356.806 431.405 357.101C431.848 357.396 432.358 357.544 432.935 357.544ZM445.453 359V349.322H447.37V351.387L447.02 351.608C447.118 351.289 447.272 350.981 447.48 350.687C447.702 350.392 447.966 350.134 448.273 349.912C448.593 349.679 448.931 349.495 449.287 349.359C449.656 349.224 450.03 349.157 450.411 349.157C450.964 349.157 451.45 349.249 451.868 349.433C452.285 349.617 452.63 349.894 452.9 350.263C453.17 350.631 453.367 351.092 453.49 351.645L453.195 351.571L453.324 351.258C453.459 350.975 453.643 350.711 453.877 350.465C454.123 350.207 454.399 349.98 454.706 349.783C455.014 349.587 455.339 349.433 455.683 349.322C456.027 349.212 456.365 349.157 456.697 349.157C457.422 349.157 458.018 349.304 458.485 349.599C458.964 349.894 459.321 350.342 459.554 350.945C459.8 351.547 459.923 352.296 459.923 353.193V359H458.006V353.304C458.006 352.751 457.932 352.303 457.785 351.958C457.65 351.602 457.441 351.338 457.158 351.166C456.875 350.994 456.513 350.908 456.07 350.908C455.726 350.908 455.401 350.969 455.093 351.092C454.799 351.203 454.54 351.362 454.319 351.571C454.098 351.78 453.926 352.026 453.803 352.309C453.68 352.579 453.619 352.88 453.619 353.212V359H451.702V353.267C451.702 352.763 451.628 352.339 451.481 351.995C451.333 351.639 451.118 351.369 450.835 351.184C450.553 351 450.209 350.908 449.803 350.908C449.459 350.908 449.139 350.969 448.845 351.092C448.55 351.203 448.292 351.362 448.07 351.571C447.849 351.768 447.677 352.008 447.554 352.29C447.431 352.561 447.37 352.856 447.37 353.175V359H445.453ZM466.815 359.184C465.869 359.184 465.021 358.969 464.271 358.539C463.534 358.097 462.95 357.501 462.52 356.751C462.09 355.989 461.875 355.123 461.875 354.152C461.875 353.181 462.09 352.321 462.52 351.571C462.95 350.809 463.534 350.213 464.271 349.783C465.021 349.341 465.869 349.12 466.815 349.12C467.749 349.12 468.585 349.341 469.322 349.783C470.072 350.213 470.662 350.809 471.092 351.571C471.522 352.321 471.737 353.181 471.737 354.152C471.737 355.123 471.522 355.989 471.092 356.751C470.662 357.501 470.072 358.097 469.322 358.539C468.585 358.969 467.749 359.184 466.815 359.184ZM466.815 357.452C467.393 357.452 467.909 357.31 468.364 357.028C468.818 356.733 469.175 356.339 469.433 355.848C469.691 355.344 469.814 354.779 469.801 354.152C469.814 353.513 469.691 352.948 469.433 352.456C469.175 351.952 468.818 351.559 468.364 351.276C467.909 350.994 467.393 350.852 466.815 350.852C466.238 350.852 465.715 351 465.248 351.295C464.794 351.578 464.437 351.971 464.179 352.475C463.921 352.966 463.798 353.525 463.811 354.152C463.798 354.779 463.921 355.344 464.179 355.848C464.437 356.339 464.794 356.733 465.248 357.028C465.715 357.31 466.238 357.452 466.815 357.452ZM473.806 359V349.322H475.723V352.364L475.538 351.627C475.674 351.16 475.901 350.736 476.22 350.355C476.552 349.974 476.927 349.673 477.345 349.452C477.775 349.23 478.217 349.12 478.672 349.12C478.881 349.12 479.078 349.138 479.262 349.175C479.459 349.212 479.612 349.255 479.723 349.304L479.225 351.369C479.078 351.307 478.912 351.258 478.727 351.221C478.555 351.172 478.383 351.147 478.211 351.147C477.879 351.147 477.56 351.215 477.253 351.35C476.958 351.473 476.694 351.651 476.46 351.885C476.239 352.106 476.061 352.37 475.926 352.677C475.79 352.972 475.723 353.298 475.723 353.654V359H473.806ZM485.342 359.184C484.347 359.184 483.462 358.975 482.688 358.558C481.926 358.127 481.324 357.544 480.882 356.806C480.451 356.069 480.236 355.221 480.236 354.263C480.236 353.501 480.359 352.806 480.605 352.18C480.851 351.553 481.189 351.012 481.619 350.558C482.061 350.091 482.584 349.734 483.186 349.488C483.8 349.23 484.464 349.101 485.176 349.101C485.803 349.101 486.387 349.224 486.928 349.47C487.468 349.703 487.935 350.029 488.329 350.447C488.734 350.865 489.041 351.362 489.25 351.94C489.471 352.505 489.576 353.126 489.564 353.802L489.545 354.613H481.637L481.213 353.101H487.905L487.628 353.415V352.972C487.591 352.567 487.456 352.204 487.223 351.885C486.989 351.565 486.694 351.313 486.338 351.129C485.981 350.945 485.594 350.852 485.176 350.852C484.513 350.852 483.954 350.981 483.499 351.24C483.044 351.485 482.7 351.854 482.467 352.346C482.233 352.825 482.117 353.421 482.117 354.134C482.117 354.809 482.258 355.399 482.541 355.903C482.823 356.395 483.223 356.776 483.739 357.046C484.255 357.316 484.851 357.452 485.527 357.452C486.006 357.452 486.448 357.372 486.854 357.212C487.272 357.052 487.72 356.763 488.2 356.346L489.158 357.691C488.863 357.986 488.501 358.244 488.071 358.465C487.653 358.687 487.204 358.865 486.725 359C486.258 359.123 485.797 359.184 485.342 359.184ZM499.78 359V348.309H496.093V346.097H505.973V348.309H502.176V359H499.78ZM509.75 359.184C508.952 359.184 508.226 358.963 507.575 358.521C506.924 358.078 506.402 357.476 506.008 356.714C505.615 355.952 505.418 355.086 505.418 354.115C505.418 353.144 505.615 352.278 506.008 351.516C506.402 350.754 506.936 350.158 507.612 349.728C508.288 349.298 509.05 349.083 509.898 349.083C510.389 349.083 510.838 349.157 511.243 349.304C511.649 349.439 512.005 349.636 512.313 349.894C512.62 350.152 512.872 350.447 513.068 350.779C513.277 351.111 513.419 351.467 513.492 351.848L512.995 351.719V349.286H515.28V359H512.976V356.677L513.511 356.585C513.425 356.917 513.265 357.243 513.031 357.562C512.81 357.869 512.528 358.146 512.183 358.392C511.852 358.625 511.477 358.816 511.059 358.963C510.654 359.111 510.217 359.184 509.75 359.184ZM510.377 357.175C510.905 357.175 511.372 357.046 511.778 356.788C512.183 356.53 512.497 356.174 512.718 355.719C512.952 355.252 513.068 354.717 513.068 354.115C513.068 353.525 512.952 353.003 512.718 352.548C512.497 352.094 512.183 351.737 511.778 351.479C511.372 351.221 510.905 351.092 510.377 351.092C509.849 351.092 509.382 351.221 508.976 351.479C508.583 351.737 508.276 352.094 508.054 352.548C507.833 353.003 507.723 353.525 507.723 354.115C507.723 354.717 507.833 355.252 508.054 355.719C508.276 356.174 508.583 356.53 508.976 356.788C509.382 357.046 509.849 357.175 510.377 357.175ZM521.153 359.184C520.293 359.184 519.519 359.043 518.831 358.76C518.155 358.465 517.602 358.048 517.172 357.507L518.646 356.235C519.015 356.653 519.427 356.954 519.881 357.138C520.336 357.323 520.815 357.415 521.319 357.415C521.528 357.415 521.712 357.39 521.872 357.341C522.044 357.292 522.192 357.218 522.314 357.12C522.437 357.021 522.53 356.911 522.591 356.788C522.665 356.653 522.702 356.505 522.702 356.346C522.702 356.051 522.591 355.817 522.37 355.645C522.247 355.559 522.05 355.467 521.78 355.369C521.522 355.27 521.184 355.172 520.766 355.074C520.102 354.902 519.549 354.705 519.107 354.484C518.665 354.25 518.321 353.992 518.075 353.71C517.866 353.476 517.706 353.212 517.596 352.917C517.497 352.622 517.448 352.303 517.448 351.958C517.448 351.528 517.54 351.141 517.725 350.797C517.921 350.441 518.185 350.134 518.517 349.875C518.849 349.617 519.236 349.421 519.679 349.286C520.121 349.15 520.582 349.083 521.061 349.083C521.553 349.083 522.026 349.144 522.48 349.267C522.947 349.39 523.377 349.568 523.771 349.802C524.176 350.023 524.52 350.293 524.803 350.613L523.55 351.995C523.316 351.774 523.058 351.578 522.775 351.405C522.505 351.233 522.228 351.098 521.946 351C521.663 350.889 521.399 350.834 521.153 350.834C520.92 350.834 520.711 350.859 520.526 350.908C520.342 350.945 520.189 351.006 520.066 351.092C519.943 351.178 519.844 351.289 519.771 351.424C519.709 351.547 519.679 351.694 519.679 351.866C519.691 352.014 519.728 352.155 519.789 352.29C519.863 352.413 519.961 352.518 520.084 352.604C520.219 352.69 520.422 352.788 520.692 352.899C520.963 353.009 521.313 353.114 521.743 353.212C522.345 353.372 522.849 353.55 523.255 353.746C523.66 353.943 523.98 354.17 524.213 354.429C524.447 354.65 524.613 354.908 524.711 355.203C524.809 355.498 524.858 355.823 524.858 356.18C524.858 356.757 524.692 357.273 524.361 357.728C524.041 358.183 523.599 358.539 523.033 358.797C522.48 359.055 521.854 359.184 521.153 359.184ZM528.975 356.032L528.533 353.912L533.141 349.286H536.164L528.975 356.032ZM526.856 359V345.359H529.123V359H526.856ZM533.418 359L529.842 354.668L531.445 353.304L536.22 359H533.418ZM540.865 359.184C540.004 359.184 539.23 359.043 538.542 358.76C537.866 358.465 537.313 358.048 536.883 357.507L538.358 356.235C538.726 356.653 539.138 356.954 539.593 357.138C540.047 357.323 540.527 357.415 541.031 357.415C541.239 357.415 541.424 357.39 541.584 357.341C541.756 357.292 541.903 357.218 542.026 357.12C542.149 357.021 542.241 356.911 542.302 356.788C542.376 356.653 542.413 356.505 542.413 356.346C542.413 356.051 542.302 355.817 542.081 355.645C541.958 355.559 541.762 355.467 541.491 355.369C541.233 355.27 540.895 355.172 540.478 355.074C539.814 354.902 539.261 354.705 538.819 354.484C538.376 354.25 538.032 353.992 537.786 353.71C537.577 353.476 537.418 353.212 537.307 352.917C537.209 352.622 537.16 352.303 537.16 351.958C537.16 351.528 537.252 351.141 537.436 350.797C537.633 350.441 537.897 350.134 538.229 349.875C538.56 349.617 538.948 349.421 539.39 349.286C539.832 349.15 540.293 349.083 540.772 349.083C541.264 349.083 541.737 349.144 542.192 349.267C542.659 349.39 543.089 349.568 543.482 349.802C543.888 350.023 544.232 350.293 544.514 350.613L543.261 351.995C543.027 351.774 542.769 351.578 542.487 351.405C542.216 351.233 541.94 351.098 541.657 351C541.375 350.889 541.11 350.834 540.865 350.834C540.631 350.834 540.422 350.859 540.238 350.908C540.054 350.945 539.9 351.006 539.777 351.092C539.654 351.178 539.556 351.289 539.482 351.424C539.421 351.547 539.39 351.694 539.39 351.866C539.402 352.014 539.439 352.155 539.501 352.29C539.574 352.413 539.673 352.518 539.795 352.604C539.931 352.69 540.133 352.788 540.404 352.899C540.674 353.009 541.024 353.114 541.454 353.212C542.057 353.372 542.56 353.55 542.966 353.746C543.372 353.943 543.691 354.17 543.925 354.429C544.158 354.65 544.324 354.908 544.422 355.203C544.521 355.498 544.57 355.823 544.57 356.18C544.57 356.757 544.404 357.273 544.072 357.728C543.752 358.183 543.31 358.539 542.745 358.797C542.192 359.055 541.565 359.184 540.865 359.184Z" fill="black"/>
<circle opacity="0.2" cx="370.167" cy="352.5" r="13.1667" fill="#3CB265"/>
<rect x="364.9" y="351.842" width="10.5333" height="1.31667" fill="#3CB265"/>
<rect x="370.825" y="347.233" width="10.5333" height="1.31667" transform="rotate(90 370.825 347.233)" fill="#3CB265"/>
<g filter="url(#filter2_d_47_277)">
<circle cx="113.5" cy="94.5" r="77.5" fill="#5649CF"/>
</g>
<path fill-rule="evenodd" clip-rule="evenodd" d="M113.499 360.262C100.494 360.262 89.9151 349.114 89.9151 335.408C89.9151 321.702 100.494 310.554 113.499 310.554C126.5 310.554 137.083 321.702 137.083 335.408C137.083 349.114 126.5 360.262 113.499 360.262ZM125.895 338.924L121.822 333.546L122.268 326.519C122.319 325.737 121.981 324.983 121.367 324.526C120.994 324.251 120.561 324.111 120.124 324.111C119.841 324.111 119.554 324.169 119.288 324.291L113.499 326.881L107.714 324.291C107.028 323.984 106.239 324.07 105.635 324.526C105.026 324.983 104.687 325.737 104.734 326.519L105.18 333.546L101.107 338.924C100.652 339.52 100.519 340.32 100.747 341.048C100.974 341.775 101.536 342.326 102.239 342.521L108.319 344.197L111.655 350.117C112.427 351.491 114.571 351.491 115.338 350.117L118.675 344.197L124.759 342.521C125.458 342.326 126.02 341.771 126.251 341.048C126.483 340.324 126.346 339.525 125.895 338.924Z" fill="white"/>
<path d="M89.3791 320.753L79.4825 302.646C79.0494 301.85 79.1137 300.861 79.6411 300.138C80.1686 299.415 81.0562 299.089 81.8966 299.333L94.4861 302.899L97.835 289.631C98.058 288.75 98.7655 288.095 99.6231 287.973C99.7174 287.964 99.816 287.959 99.9061 287.959C100.665 287.959 101.377 288.384 101.763 289.089L111.123 306.161C101.823 306.993 93.83 312.655 89.3791 320.753Z" fill="white"/>
<path d="M137.619 320.753L147.52 302.646C147.949 301.85 147.889 300.861 147.357 300.142C146.825 299.419 145.942 299.094 145.101 299.338L132.512 302.903L129.163 289.636C128.936 288.755 128.232 288.099 127.371 287.977C127.281 287.964 127.182 287.959 127.092 287.959C126.333 287.959 125.621 288.384 125.235 289.089L115.875 306.161C125.175 306.993 133.172 312.655 137.619 320.753Z" fill="white"/>
<defs>
<filter id="filter0_d_47_277" x="348" y="24" width="315" height="149" filterUnits="userSpaceOnUse" color-interpolation-filters="sRGB">
<feFlood flood-opacity="0" result="BackgroundImageFix"/>
<feColorMatrix in="SourceAlpha" type="matrix" values="0 0 0 0 0 0 0 0 0 0 0 0 0 0 0 0 0 0 127 0" result="hardAlpha"/>
<feMorphology radius="10" operator="erode" in="SourceAlpha" result="effect1_dropShadow_47_277"/>
<feOffset dy="9"/>
<feGaussianBlur stdDeviation="20"/>
<feComposite in2="hardAlpha" operator="out"/>
<feColorMatrix type="matrix" values="0 0 0 0 0 0 0 0 0 0 0 0 0 0 0 0 0 0 0.1 0"/>
<feBlend mode="normal" in2="BackgroundImageFix" result="effect1_dropShadow_47_277"/>
<feBlend mode="normal" in="SourceGraphic" in2="effect1_dropShadow_47_277" result="shape"/>
</filter>
<filter id="filter1_d_47_277" x="256" y="266" width="487" height="223" filterUnits="userSpaceOnUse" color-interpolation-filters="sRGB">
<feFlood flood-opacity="0" result="BackgroundImageFix"/>
<feColorMatrix in="SourceAlpha" type="matrix" values="0 0 0 0 0 0 0 0 0 0 0 0 0 0 0 0 0 0 127 0" result="hardAlpha"/>
<feMorphology radius="15" operator="erode" in="SourceAlpha" result="effect1_dropShadow_47_277"/>
<feOffset dy="25"/>
<feGaussianBlur stdDeviation="43.5"/>
<feColorMatrix type="matrix" values="0 0 0 0 0.583333 0 0 0 0 0.583333 0 0 0 0 0.583333 0 0 0 0.36 0"/>
<feBlend mode="normal" in2="BackgroundImageFix" result="effect1_dropShadow_47_277"/>
<feBlend mode="normal" in="SourceGraphic" in2="effect1_dropShadow_47_277" result="shape"/>
</filter>
<filter id="filter2_d_47_277" x="0.426228" y="0.483604" width="226.148" height="226.148" filterUnits="userSpaceOnUse" color-interpolation-filters="sRGB">
<feFlood flood-opacity="0" result="BackgroundImageFix"/>
<feColorMatrix in="SourceAlpha" type="matrix" values="0 0 0 0 0 0 0 0 0 0 0 0 0 0 0 0 0 0 127 0" result="hardAlpha"/>
<feOffset dy="19.0574"/>
<feGaussianBlur stdDeviation="17.7869"/>
<feComposite in2="hardAlpha" operator="out"/>
<feColorMatrix type="matrix" values="0 0 0 0 0.337255 0 0 0 0 0.286274 0 0 0 0 0.807843 0 0 0 0.19 0"/>
<feBlend mode="normal" in2="BackgroundImageFix" result="effect1_dropShadow_47_277"/>
<feBlend mode="normal" in="SourceGraphic" in2="effect1_dropShadow_47_277" result="shape"/>
</filter>
</defs>
</svg>
