<svg width="227" height="217" viewBox="0 0 227 217" fill="none" xmlns="http://www.w3.org/2000/svg">
<rect width="227" height="205" rx="6" fill="#131416"/>
<path d="M70 217L63.0718 205L76.9282 205L70 217Z" fill="#131416"/>
<path d="M49.7713 143.21C48.9173 143.21 48.1333 143.105 47.4193 142.895C46.7053 142.671 46.0613 142.342 45.4873 141.908C44.9133 141.474 44.4023 140.949 43.9543 140.333L45.7393 138.317C46.4253 139.269 47.0973 139.927 47.7553 140.291C48.4133 140.655 49.1553 140.837 49.9813 140.837C50.4573 140.837 50.8913 140.767 51.2833 140.627C51.6753 140.473 51.9833 140.27 52.2073 140.018C52.4313 139.752 52.5433 139.451 52.5433 139.115C52.5433 138.877 52.4943 138.66 52.3963 138.464C52.3123 138.254 52.1793 138.072 51.9973 137.918C51.8153 137.75 51.5913 137.596 51.3253 137.456C51.0593 137.316 50.7583 137.197 50.4223 137.099C50.0863 137.001 49.7153 136.91 49.3093 136.826C48.5393 136.672 47.8673 136.469 47.2933 136.217C46.7193 135.951 46.2363 135.629 45.8443 135.251C45.4523 134.859 45.1653 134.425 44.9833 133.949C44.8013 133.459 44.7103 132.906 44.7103 132.29C44.7103 131.674 44.8433 131.107 45.1093 130.589C45.3893 130.071 45.7673 129.623 46.2433 129.245C46.7193 128.867 47.2723 128.573 47.9023 128.363C48.5323 128.153 49.2113 128.048 49.9393 128.048C50.7653 128.048 51.5003 128.146 52.1443 128.342C52.8023 128.538 53.3763 128.832 53.8663 129.224C54.3703 129.602 54.7833 130.064 55.1053 130.61L53.2993 132.395C53.0193 131.961 52.7043 131.604 52.3543 131.324C52.0043 131.03 51.6263 130.813 51.2203 130.673C50.8143 130.519 50.3873 130.442 49.9393 130.442C49.4353 130.442 48.9943 130.512 48.6163 130.652C48.2523 130.792 47.9653 130.995 47.7553 131.261C47.5453 131.513 47.4403 131.821 47.4403 132.185C47.4403 132.465 47.5033 132.717 47.6293 132.941C47.7553 133.151 47.9303 133.34 48.1543 133.508C48.3923 133.676 48.6933 133.823 49.0573 133.949C49.4213 134.075 49.8343 134.187 50.2963 134.285C51.0663 134.439 51.7593 134.649 52.3753 134.915C52.9913 135.167 53.5163 135.475 53.9503 135.839C54.3843 136.189 54.7133 136.595 54.9373 137.057C55.1613 137.505 55.2733 138.009 55.2733 138.569C55.2733 139.535 55.0423 140.368 54.5803 141.068C54.1323 141.754 53.4953 142.286 52.6693 142.664C51.8433 143.028 50.8773 143.21 49.7713 143.21ZM58.2753 143V128.3H60.8583L66.2133 137.015L64.7013 136.994L70.1193 128.3H72.5763V143H69.8673V137.477C69.8673 136.217 69.8953 135.083 69.9513 134.075C70.0213 133.067 70.1333 132.066 70.2873 131.072L70.6233 131.975L66.0663 139.01H64.6803L60.2703 132.038L60.5643 131.072C60.7183 132.01 60.8233 132.976 60.8793 133.97C60.9493 134.95 60.9843 136.119 60.9843 137.477V143H58.2753ZM81.1892 143.21C80.3352 143.21 79.5512 143.105 78.8372 142.895C78.1232 142.671 77.4792 142.342 76.9052 141.908C76.3312 141.474 75.8202 140.949 75.3722 140.333L77.1572 138.317C77.8432 139.269 78.5152 139.927 79.1732 140.291C79.8312 140.655 80.5732 140.837 81.3992 140.837C81.8752 140.837 82.3092 140.767 82.7012 140.627C83.0932 140.473 83.4012 140.27 83.6252 140.018C83.8492 139.752 83.9612 139.451 83.9612 139.115C83.9612 138.877 83.9122 138.66 83.8142 138.464C83.7302 138.254 83.5972 138.072 83.4152 137.918C83.2332 137.75 83.0092 137.596 82.7432 137.456C82.4772 137.316 82.1762 137.197 81.8402 137.099C81.5042 137.001 81.1332 136.91 80.7272 136.826C79.9572 136.672 79.2852 136.469 78.7112 136.217C78.1372 135.951 77.6542 135.629 77.2622 135.251C76.8702 134.859 76.5832 134.425 76.4012 133.949C76.2192 133.459 76.1282 132.906 76.1282 132.29C76.1282 131.674 76.2612 131.107 76.5272 130.589C76.8072 130.071 77.1852 129.623 77.6612 129.245C78.1372 128.867 78.6902 128.573 79.3202 128.363C79.9502 128.153 80.6292 128.048 81.3572 128.048C82.1832 128.048 82.9182 128.146 83.5622 128.342C84.2202 128.538 84.7942 128.832 85.2842 129.224C85.7882 129.602 86.2012 130.064 86.5232 130.61L84.7172 132.395C84.4372 131.961 84.1222 131.604 83.7722 131.324C83.4222 131.03 83.0442 130.813 82.6382 130.673C82.2322 130.519 81.8052 130.442 81.3572 130.442C80.8532 130.442 80.4122 130.512 80.0342 130.652C79.6702 130.792 79.3832 130.995 79.1732 131.261C78.9632 131.513 78.8582 131.821 78.8582 132.185C78.8582 132.465 78.9212 132.717 79.0472 132.941C79.1732 133.151 79.3482 133.34 79.5722 133.508C79.8102 133.676 80.1112 133.823 80.4752 133.949C80.8392 134.075 81.2522 134.187 81.7142 134.285C82.4842 134.439 83.1772 134.649 83.7932 134.915C84.4092 135.167 84.9342 135.475 85.3682 135.839C85.8022 136.189 86.1312 136.595 86.3552 137.057C86.5792 137.505 86.6912 138.009 86.6912 138.569C86.6912 139.535 86.4602 140.368 85.9982 141.068C85.5502 141.754 84.9132 142.286 84.0872 142.664C83.2612 143.028 82.2952 143.21 81.1892 143.21ZM99.5831 143.21C98.6731 143.21 97.8471 142.958 97.1051 142.454C96.3631 141.95 95.7681 141.264 95.3201 140.396C94.8721 139.528 94.6481 138.541 94.6481 137.435C94.6481 136.329 94.8721 135.342 95.3201 134.474C95.7681 133.606 96.3771 132.927 97.1471 132.437C97.9171 131.947 98.7851 131.702 99.7511 131.702C100.311 131.702 100.822 131.786 101.284 131.954C101.746 132.108 102.152 132.332 102.502 132.626C102.852 132.92 103.139 133.256 103.363 133.634C103.601 134.012 103.762 134.418 103.846 134.852L103.279 134.705V131.933H105.883V143H103.258V140.354L103.867 140.249C103.769 140.627 103.587 140.998 103.321 141.362C103.069 141.712 102.747 142.027 102.355 142.307C101.977 142.573 101.55 142.79 101.074 142.958C100.612 143.126 100.115 143.21 99.5831 143.21ZM100.297 140.921C100.899 140.921 101.431 140.774 101.893 140.48C102.355 140.186 102.712 139.78 102.964 139.262C103.23 138.73 103.363 138.121 103.363 137.435C103.363 136.763 103.23 136.168 102.964 135.65C102.712 135.132 102.355 134.726 101.893 134.432C101.431 134.138 100.899 133.991 100.297 133.991C99.6951 133.991 99.1631 134.138 98.7011 134.432C98.2531 134.726 97.9031 135.132 97.6511 135.65C97.3991 136.168 97.2731 136.763 97.2731 137.435C97.2731 138.121 97.3991 138.73 97.6511 139.262C97.9031 139.78 98.2531 140.186 98.7011 140.48C99.1631 140.774 99.6951 140.921 100.297 140.921ZM108.878 143V131.933H111.398L111.44 134.201L110.957 134.453C111.097 133.949 111.37 133.494 111.776 133.088C112.182 132.668 112.665 132.332 113.225 132.08C113.785 131.828 114.359 131.702 114.947 131.702C115.787 131.702 116.487 131.87 117.047 132.206C117.621 132.542 118.048 133.046 118.328 133.718C118.622 134.39 118.769 135.23 118.769 136.238V143H116.186V136.427C116.186 135.867 116.109 135.405 115.955 135.041C115.801 134.663 115.563 134.39 115.241 134.222C114.919 134.04 114.527 133.956 114.065 133.97C113.687 133.97 113.337 134.033 113.015 134.159C112.707 134.271 112.434 134.439 112.196 134.663C111.972 134.873 111.79 135.118 111.65 135.398C111.524 135.678 111.461 135.986 111.461 136.322V143H110.18C109.928 143 109.69 143 109.466 143C109.256 143 109.06 143 108.878 143ZM126.127 143.21C125.147 143.21 124.265 142.965 123.481 142.475C122.711 141.971 122.095 141.292 121.633 140.438C121.185 139.57 120.961 138.576 120.961 137.456C120.961 136.35 121.185 135.363 121.633 134.495C122.081 133.627 122.69 132.948 123.46 132.458C124.244 131.954 125.126 131.702 126.106 131.702C126.638 131.702 127.149 131.786 127.639 131.954C128.143 132.122 128.591 132.353 128.983 132.647C129.375 132.927 129.683 133.242 129.907 133.592C130.145 133.942 130.278 134.306 130.306 134.684L129.613 134.768V127.46H132.196V143H129.697L129.634 140.396L130.138 140.438C130.124 140.788 129.998 141.124 129.76 141.446C129.536 141.768 129.242 142.062 128.878 142.328C128.514 142.594 128.087 142.811 127.597 142.979C127.121 143.133 126.631 143.21 126.127 143.21ZM126.631 141.026C127.233 141.026 127.765 140.872 128.227 140.564C128.689 140.256 129.046 139.836 129.298 139.304C129.564 138.772 129.697 138.156 129.697 137.456C129.697 136.77 129.564 136.161 129.298 135.629C129.046 135.083 128.689 134.663 128.227 134.369C127.765 134.061 127.233 133.907 126.631 133.907C126.029 133.907 125.497 134.061 125.035 134.369C124.573 134.663 124.209 135.083 123.943 135.629C123.691 136.161 123.565 136.77 123.565 137.456C123.565 138.156 123.691 138.772 123.943 139.304C124.209 139.836 124.573 140.256 125.035 140.564C125.497 140.872 126.029 141.026 126.631 141.026ZM144.997 143.21C144.017 143.21 143.135 143.049 142.351 142.727C141.581 142.391 140.951 141.915 140.461 141.299L142.141 139.85C142.561 140.326 143.03 140.669 143.548 140.879C144.066 141.089 144.612 141.194 145.186 141.194C145.424 141.194 145.634 141.166 145.816 141.11C146.012 141.054 146.18 140.97 146.32 140.858C146.46 140.746 146.565 140.62 146.635 140.48C146.719 140.326 146.761 140.158 146.761 139.976C146.761 139.64 146.635 139.374 146.383 139.178C146.243 139.08 146.019 138.975 145.711 138.863C145.417 138.751 145.032 138.639 144.556 138.527C143.8 138.331 143.17 138.107 142.666 137.855C142.162 137.589 141.77 137.295 141.49 136.973C141.252 136.707 141.07 136.406 140.944 136.07C140.832 135.734 140.776 135.37 140.776 134.978C140.776 134.488 140.881 134.047 141.091 133.655C141.315 133.249 141.616 132.899 141.994 132.605C142.372 132.311 142.813 132.087 143.317 131.933C143.821 131.779 144.346 131.702 144.892 131.702C145.452 131.702 145.991 131.772 146.509 131.912C147.041 132.052 147.531 132.255 147.979 132.521C148.441 132.773 148.833 133.081 149.155 133.445L147.727 135.02C147.461 134.768 147.167 134.544 146.845 134.348C146.537 134.152 146.222 133.998 145.9 133.886C145.578 133.76 145.277 133.697 144.997 133.697C144.731 133.697 144.493 133.725 144.283 133.781C144.073 133.823 143.898 133.893 143.758 133.991C143.618 134.089 143.506 134.215 143.422 134.369C143.352 134.509 143.317 134.677 143.317 134.873C143.331 135.041 143.373 135.202 143.443 135.356C143.527 135.496 143.639 135.615 143.779 135.713C143.933 135.811 144.164 135.923 144.472 136.049C144.78 136.175 145.179 136.294 145.669 136.406C146.355 136.588 146.929 136.791 147.391 137.015C147.853 137.239 148.217 137.498 148.483 137.792C148.749 138.044 148.938 138.338 149.05 138.674C149.162 139.01 149.218 139.381 149.218 139.787C149.218 140.445 149.029 141.033 148.651 141.551C148.287 142.069 147.783 142.475 147.139 142.769C146.509 143.063 145.795 143.21 144.997 143.21ZM156.68 143.21C155.518 143.21 154.489 142.965 153.593 142.475C152.711 141.985 152.018 141.32 151.514 140.48C151.024 139.626 150.779 138.653 150.779 137.561C150.779 136.693 150.919 135.902 151.199 135.188C151.479 134.474 151.864 133.858 152.354 133.34C152.858 132.808 153.453 132.402 154.139 132.122C154.839 131.828 155.602 131.681 156.428 131.681C157.156 131.681 157.835 131.821 158.465 132.101C159.095 132.381 159.641 132.766 160.103 133.256C160.565 133.732 160.915 134.306 161.153 134.978C161.405 135.636 161.524 136.357 161.51 137.141L161.489 138.044H152.522L152.039 136.28H159.326L158.99 136.637V136.175C158.948 135.741 158.808 135.363 158.57 135.041C158.332 134.705 158.024 134.446 157.646 134.264C157.282 134.068 156.876 133.97 156.428 133.97C155.742 133.97 155.161 134.103 154.685 134.369C154.223 134.635 153.873 135.02 153.635 135.524C153.397 136.014 153.278 136.63 153.278 137.372C153.278 138.086 153.425 138.709 153.719 139.241C154.027 139.773 154.454 140.186 155 140.48C155.56 140.76 156.211 140.9 156.953 140.9C157.471 140.9 157.947 140.816 158.381 140.648C158.815 140.48 159.284 140.179 159.788 139.745L161.069 141.53C160.691 141.88 160.257 142.181 159.767 142.433C159.291 142.671 158.787 142.86 158.255 143C157.723 143.14 157.198 143.21 156.68 143.21ZM163.819 143V127.46H166.423V143H163.819ZM170.466 143V130.946C170.466 130.274 170.613 129.679 170.907 129.161C171.201 128.629 171.607 128.216 172.125 127.922C172.643 127.614 173.245 127.46 173.931 127.46C174.407 127.46 174.848 127.544 175.254 127.712C175.66 127.866 176.003 128.083 176.283 128.363L175.485 130.316C175.303 130.162 175.107 130.043 174.897 129.959C174.701 129.875 174.512 129.833 174.33 129.833C174.05 129.833 173.812 129.882 173.616 129.98C173.434 130.064 173.294 130.197 173.196 130.379C173.112 130.561 173.07 130.778 173.07 131.03V143H171.768C171.516 143 171.278 143 171.054 143C170.844 143 170.648 143 170.466 143ZM168.744 134.432V132.164H175.569V134.432H168.744ZM177.282 138.233V135.755H183.771V138.233H177.282ZM69.9011 165.21C68.7391 165.21 67.7101 164.965 66.8141 164.475C65.9321 163.985 65.2391 163.32 64.7351 162.48C64.2451 161.626 64.0001 160.653 64.0001 159.561C64.0001 158.693 64.1401 157.902 64.4201 157.188C64.7001 156.474 65.0851 155.858 65.5751 155.34C66.0791 154.808 66.6741 154.402 67.3601 154.122C68.0601 153.828 68.8231 153.681 69.6491 153.681C70.3771 153.681 71.0561 153.821 71.6861 154.101C72.3161 154.381 72.8621 154.766 73.3241 155.256C73.7861 155.732 74.1361 156.306 74.3741 156.978C74.6261 157.636 74.7451 158.357 74.7311 159.141L74.7101 160.044H65.7431L65.2601 158.28H72.5471L72.2111 158.637V158.175C72.1691 157.741 72.0291 157.363 71.7911 157.041C71.5531 156.705 71.2451 156.446 70.8671 156.264C70.5031 156.068 70.0971 155.97 69.6491 155.97C68.9631 155.97 68.3821 156.103 67.9061 156.369C67.4441 156.635 67.0941 157.02 66.8561 157.524C66.6181 158.014 66.4991 158.63 66.4991 159.372C66.4991 160.086 66.6461 160.709 66.9401 161.241C67.2481 161.773 67.6751 162.186 68.2211 162.48C68.7811 162.76 69.4321 162.9 70.1741 162.9C70.6921 162.9 71.1681 162.816 71.6021 162.648C72.0361 162.48 72.5051 162.179 73.0091 161.745L74.2901 163.53C73.9121 163.88 73.4781 164.181 72.9881 164.433C72.5121 164.671 72.0081 164.86 71.4761 165C70.9441 165.14 70.4191 165.21 69.9011 165.21ZM76.9768 165V153.933H79.5178L79.5598 156.159L79.1398 156.327C79.2658 155.963 79.4548 155.627 79.7068 155.319C79.9588 154.997 80.2598 154.724 80.6098 154.5C80.9598 154.262 81.3308 154.08 81.7228 153.954C82.1148 153.814 82.5138 153.744 82.9198 153.744C83.5218 153.744 84.0538 153.842 84.5158 154.038C84.9918 154.22 85.3838 154.514 85.6918 154.92C86.0138 155.326 86.2518 155.844 86.4058 156.474L86.0068 156.39L86.1748 156.054C86.3288 155.718 86.5458 155.417 86.8258 155.151C87.1058 154.871 87.4208 154.626 87.7708 154.416C88.1208 154.192 88.4848 154.024 88.8628 153.912C89.2548 153.8 89.6398 153.744 90.0178 153.744C90.8578 153.744 91.5578 153.912 92.1178 154.248C92.6778 154.584 93.0978 155.095 93.3778 155.781C93.6578 156.467 93.7978 157.314 93.7978 158.322V165H91.1938V158.49C91.1938 157.93 91.1168 157.468 90.9628 157.104C90.8228 156.74 90.5988 156.474 90.2908 156.306C89.9968 156.124 89.6258 156.033 89.1778 156.033C88.8278 156.033 88.4918 156.096 88.1698 156.222C87.8618 156.334 87.5958 156.502 87.3718 156.726C87.1478 156.936 86.9728 157.181 86.8468 157.461C86.7208 157.741 86.6578 158.049 86.6578 158.385V165H84.0538V158.469C84.0538 157.937 83.9768 157.496 83.8228 157.146C83.6688 156.782 83.4448 156.509 83.1508 156.327C82.8568 156.131 82.4998 156.033 82.0798 156.033C81.7298 156.033 81.4008 156.096 81.0928 156.222C80.7848 156.334 80.5188 156.495 80.2948 156.705C80.0708 156.915 79.8958 157.16 79.7698 157.44C79.6438 157.72 79.5808 158.028 79.5808 158.364V165H76.9768ZM96.6653 169.62V153.933H99.2063L99.2483 156.453L98.8073 156.264C98.8913 155.83 99.1293 155.424 99.5213 155.046C99.9133 154.654 100.389 154.339 100.949 154.101C101.523 153.863 102.118 153.744 102.734 153.744C103.714 153.744 104.582 153.989 105.338 154.479C106.108 154.969 106.71 155.641 107.144 156.495C107.592 157.349 107.816 158.336 107.816 159.456C107.816 160.562 107.592 161.549 107.144 162.417C106.71 163.271 106.108 163.95 105.338 164.454C104.582 164.944 103.728 165.189 102.776 165.189C102.132 165.189 101.509 165.063 100.907 164.811C100.319 164.559 99.8153 164.23 99.3953 163.824C98.9893 163.418 98.7373 162.991 98.6393 162.543L99.2693 162.249V169.62H96.6653ZM102.251 162.9C102.839 162.9 103.364 162.753 103.826 162.459C104.288 162.165 104.645 161.759 104.897 161.241C105.163 160.723 105.296 160.128 105.296 159.456C105.296 158.784 105.17 158.196 104.918 157.692C104.666 157.174 104.309 156.768 103.847 156.474C103.385 156.18 102.853 156.033 102.251 156.033C101.635 156.033 101.096 156.18 100.634 156.474C100.186 156.754 99.8293 157.153 99.5633 157.671C99.2973 158.189 99.1643 158.784 99.1643 159.456C99.1643 160.128 99.2973 160.723 99.5633 161.241C99.8293 161.759 100.186 162.165 100.634 162.459C101.096 162.753 101.635 162.9 102.251 162.9ZM110.139 165V149.46H112.743V165H110.139ZM120.635 165.21C119.529 165.21 118.542 164.965 117.674 164.475C116.806 163.971 116.12 163.285 115.616 162.417C115.112 161.549 114.86 160.562 114.86 159.456C114.86 158.35 115.112 157.363 115.616 156.495C116.12 155.627 116.806 154.948 117.674 154.458C118.542 153.954 119.529 153.702 120.635 153.702C121.727 153.702 122.707 153.954 123.575 154.458C124.443 154.948 125.122 155.627 125.612 156.495C126.116 157.363 126.368 158.35 126.368 159.456C126.368 160.562 126.116 161.549 125.612 162.417C125.122 163.285 124.443 163.971 123.575 164.475C122.707 164.965 121.727 165.21 120.635 165.21ZM120.635 162.921C121.237 162.921 121.769 162.767 122.231 162.459C122.707 162.151 123.078 161.738 123.344 161.22C123.624 160.702 123.757 160.114 123.743 159.456C123.757 158.784 123.624 158.189 123.344 157.671C123.078 157.153 122.707 156.747 122.231 156.453C121.769 156.145 121.237 155.991 120.635 155.991C120.033 155.991 119.487 156.145 118.997 156.453C118.521 156.747 118.15 157.16 117.884 157.692C117.618 158.21 117.485 158.798 117.485 159.456C117.485 160.114 117.618 160.702 117.884 161.22C118.15 161.738 118.521 162.151 118.997 162.459C119.487 162.767 120.033 162.921 120.635 162.921ZM129.948 169.83L132.3 164.391L132.321 166.113L126.861 153.933H129.843L132.888 161.157C132.986 161.339 133.084 161.584 133.182 161.892C133.28 162.186 133.364 162.48 133.434 162.774L132.909 162.942C133.007 162.676 133.112 162.396 133.224 162.102C133.336 161.794 133.441 161.479 133.539 161.157L136.143 153.933H139.146L134.526 165L132.636 169.83H129.948ZM145.739 165.21C144.577 165.21 143.548 164.965 142.652 164.475C141.77 163.985 141.077 163.32 140.573 162.48C140.083 161.626 139.838 160.653 139.838 159.561C139.838 158.693 139.978 157.902 140.258 157.188C140.538 156.474 140.923 155.858 141.413 155.34C141.917 154.808 142.512 154.402 143.198 154.122C143.898 153.828 144.661 153.681 145.487 153.681C146.215 153.681 146.894 153.821 147.524 154.101C148.154 154.381 148.7 154.766 149.162 155.256C149.624 155.732 149.974 156.306 150.212 156.978C150.464 157.636 150.583 158.357 150.569 159.141L150.548 160.044H141.581L141.098 158.28H148.385L148.049 158.637V158.175C148.007 157.741 147.867 157.363 147.629 157.041C147.391 156.705 147.083 156.446 146.705 156.264C146.341 156.068 145.935 155.97 145.487 155.97C144.801 155.97 144.22 156.103 143.744 156.369C143.282 156.635 142.932 157.02 142.694 157.524C142.456 158.014 142.337 158.63 142.337 159.372C142.337 160.086 142.484 160.709 142.778 161.241C143.086 161.773 143.513 162.186 144.059 162.48C144.619 162.76 145.27 162.9 146.012 162.9C146.53 162.9 147.006 162.816 147.44 162.648C147.874 162.48 148.343 162.179 148.847 161.745L150.128 163.53C149.75 163.88 149.316 164.181 148.826 164.433C148.35 164.671 147.846 164.86 147.314 165C146.782 165.14 146.257 165.21 145.739 165.21ZM157.309 165.21C156.329 165.21 155.447 164.965 154.663 164.475C153.893 163.971 153.277 163.292 152.815 162.438C152.367 161.57 152.143 160.576 152.143 159.456C152.143 158.35 152.367 157.363 152.815 156.495C153.263 155.627 153.872 154.948 154.642 154.458C155.426 153.954 156.308 153.702 157.288 153.702C157.82 153.702 158.331 153.786 158.821 153.954C159.325 154.122 159.773 154.353 160.165 154.647C160.557 154.927 160.865 155.242 161.089 155.592C161.327 155.942 161.46 156.306 161.488 156.684L160.795 156.768V149.46H163.378V165H160.879L160.816 162.396L161.32 162.438C161.306 162.788 161.18 163.124 160.942 163.446C160.718 163.768 160.424 164.062 160.06 164.328C159.696 164.594 159.269 164.811 158.779 164.979C158.303 165.133 157.813 165.21 157.309 165.21ZM157.813 163.026C158.415 163.026 158.947 162.872 159.409 162.564C159.871 162.256 160.228 161.836 160.48 161.304C160.746 160.772 160.879 160.156 160.879 159.456C160.879 158.77 160.746 158.161 160.48 157.629C160.228 157.083 159.871 156.663 159.409 156.369C158.947 156.061 158.415 155.907 157.813 155.907C157.211 155.907 156.679 156.061 156.217 156.369C155.755 156.663 155.391 157.083 155.125 157.629C154.873 158.161 154.747 158.77 154.747 159.456C154.747 160.156 154.873 160.772 155.125 161.304C155.391 161.836 155.755 162.256 156.217 162.564C156.679 162.872 157.211 163.026 157.813 163.026Z" fill="white"/>
<path d="M124 46H104C98.6957 46 93.6086 48.1071 89.8579 51.8579C86.1071 55.6086 84 60.6957 84 66C84 71.3043 86.1071 76.3914 89.8579 80.1421C93.6086 83.8929 98.6957 86 104 86H106V96L118 86H124C129.304 86 134.391 83.8929 138.142 80.1421C141.893 76.3914 144 71.3043 144 66C144 60.6957 141.893 55.6086 138.142 51.8579C134.391 48.1071 129.304 46 124 46V46Z" stroke="white" stroke-width="2" stroke-miterlimit="10" stroke-linecap="round" stroke-linejoin="round"/>
<path d="M102 68C103.105 68 104 67.1046 104 66C104 64.8954 103.105 64 102 64C100.895 64 100 64.8954 100 66C100 67.1046 100.895 68 102 68Z" stroke="white" stroke-width="2" stroke-miterlimit="10" stroke-linecap="round" stroke-linejoin="round"/>
<path d="M114 68C115.105 68 116 67.1046 116 66C116 64.8954 115.105 64 114 64C112.895 64 112 64.8954 112 66C112 67.1046 112.895 68 114 68Z" stroke="white" stroke-width="2" stroke-miterlimit="10" stroke-linecap="round" stroke-linejoin="round"/>
<path d="M126 68C127.105 68 128 67.1046 128 66C128 64.8954 127.105 64 126 64C124.895 64 124 64.8954 124 66C124 67.1046 124.895 68 126 68Z" stroke="white" stroke-width="2" stroke-miterlimit="10" stroke-linecap="round" stroke-linejoin="round"/>
</svg>
