<svg width="175" height="44" viewBox="0 0 175 44" fill="none" xmlns="http://www.w3.org/2000/svg">
<path d="M48.0487 31.2429V14.3429H51.7184L57.8748 24.3622L55.2433 24.3381L61.4721 14.3429H64.997V31.2429H61.0134V25.9798C61.0134 24.5312 61.0456 23.2275 61.11 22.0686C61.1904 20.9098 61.3192 19.759 61.4963 18.6162L61.955 19.8716L57.2713 27.1386H55.6778L51.0907 19.9199L51.5494 18.6162C51.7264 19.6946 51.8472 20.8052 51.9115 21.9479C51.992 23.0746 52.0323 24.4185 52.0323 25.9798V31.2429H48.0487ZM73.566 31.4602C72.4876 31.4602 71.5219 31.1785 70.6688 30.6152C69.8319 30.0358 69.1639 29.2471 68.665 28.2492C68.166 27.2352 67.9166 26.0924 67.9166 24.8209C67.9166 23.5172 68.166 22.3664 68.665 21.3685C69.1639 20.3706 69.848 19.59 70.7171 19.0266C71.5863 18.4472 72.5761 18.1575 73.6867 18.1575C74.2983 18.1575 74.8536 18.246 75.3526 18.4231C75.8676 18.6001 76.3183 18.8496 76.7046 19.1715C77.0908 19.4773 77.4208 19.8394 77.6944 20.2579C77.968 20.6603 78.1692 21.0949 78.298 21.5616L77.5013 21.4651V18.4231H81.34V31.2429H77.4288V28.1526L78.298 28.1285C78.1692 28.5792 77.96 29.0057 77.6703 29.4081C77.3806 29.8104 77.0265 30.1645 76.608 30.4703C76.1895 30.7762 75.7227 31.0176 75.2077 31.1946C74.6927 31.3717 74.1454 31.4602 73.566 31.4602ZM74.6283 28.2009C75.2238 28.2009 75.7388 28.0641 76.1734 27.7905C76.608 27.5169 76.946 27.1306 77.1874 26.6316C77.4288 26.1166 77.5496 25.513 77.5496 24.8209C77.5496 24.1288 77.4288 23.5333 77.1874 23.0343C76.946 22.5193 76.608 22.125 76.1734 21.8513C75.7388 21.5616 75.2238 21.4168 74.6283 21.4168C74.0488 21.4168 73.5418 21.5616 73.1073 21.8513C72.6888 22.125 72.3588 22.5193 72.1174 23.0343C71.876 23.5333 71.7553 24.1288 71.7553 24.8209C71.7553 25.513 71.876 26.1166 72.1174 26.6316C72.3588 27.1306 72.6888 27.5169 73.1073 27.7905C73.5418 28.0641 74.0488 28.2009 74.6283 28.2009ZM84.9657 31.2429V18.4231H88.8286V31.2429H84.9657ZM86.8972 15.8881C86.1729 15.8881 85.6015 15.7191 85.183 15.3811C84.7807 15.027 84.5795 14.528 84.5795 13.8842C84.5795 13.3048 84.7887 12.83 85.2072 12.4598C85.6257 12.0896 86.189 11.9045 86.8972 11.9045C87.6215 11.9045 88.1848 12.0815 88.5872 12.4356C88.9896 12.7736 89.1907 13.2565 89.1907 13.8842C89.1907 14.4797 88.9815 14.9626 88.563 15.3328C88.1607 15.703 87.6054 15.8881 86.8972 15.8881ZM92.4823 31.2429V13.3772H96.3451V31.2429H92.4823ZM100.201 31.2429V14.3429H103.871L110.027 24.3622L107.396 24.3381L113.624 14.3429H117.149V31.2429H113.166V25.9798C113.166 24.5312 113.198 23.2275 113.262 22.0686C113.343 20.9098 113.472 19.759 113.649 18.6162L114.107 19.8716L109.424 27.1386H107.83L103.243 19.9199L103.702 18.6162C103.879 19.6946 103.999 20.8052 104.064 21.9479C104.144 23.0746 104.185 24.4185 104.185 25.9798V31.2429H100.201ZM125.718 31.4602C124.64 31.4602 123.674 31.1785 122.821 30.6152C121.984 30.0358 121.316 29.2471 120.817 28.2492C120.318 27.2352 120.069 26.0924 120.069 24.8209C120.069 23.5172 120.318 22.3664 120.817 21.3685C121.316 20.3706 122 19.59 122.869 19.0266C123.739 18.4472 124.728 18.1575 125.839 18.1575C126.451 18.1575 127.006 18.246 127.505 18.4231C128.02 18.6001 128.471 18.8496 128.857 19.1715C129.243 19.4773 129.573 19.8394 129.847 20.2579C130.12 20.6603 130.322 21.0949 130.45 21.5616L129.654 21.4651V18.4231H133.492V31.2429H129.581V28.1526L130.45 28.1285C130.322 28.5792 130.112 29.0057 129.823 29.4081C129.533 29.8104 129.179 30.1645 128.76 30.4703C128.342 30.7762 127.875 31.0176 127.36 31.1946C126.845 31.3717 126.298 31.4602 125.718 31.4602ZM126.781 28.2009C127.376 28.2009 127.891 28.0641 128.326 27.7905C128.76 27.5169 129.098 27.1306 129.34 26.6316C129.581 26.1166 129.702 25.513 129.702 24.8209C129.702 24.1288 129.581 23.5333 129.34 23.0343C129.098 22.5193 128.76 22.125 128.326 21.8513C127.891 21.5616 127.376 21.4168 126.781 21.4168C126.201 21.4168 125.694 21.5616 125.26 21.8513C124.841 22.125 124.511 22.5193 124.27 23.0343C124.028 23.5333 123.908 24.1288 123.908 24.8209C123.908 25.513 124.028 26.1166 124.27 26.6316C124.511 27.1306 124.841 27.5169 125.26 27.7905C125.694 28.0641 126.201 28.2009 126.781 28.2009ZM140.619 27.4766L139.194 24.5795L145.182 18.4231H150.276L140.619 27.4766ZM136.901 31.2429V13.3772H140.764V31.2429H136.901ZM145.592 31.2429L141.078 25.4003L143.806 23.2758L150.155 31.2429H145.592ZM157.58 31.4843C156.163 31.4843 154.932 31.2027 153.886 30.6393C152.839 30.0599 152.027 29.2793 151.447 28.2975C150.868 27.2996 150.578 26.1649 150.578 24.8933C150.578 23.9115 150.739 23.0102 151.061 22.1893C151.383 21.3685 151.834 20.6603 152.413 20.0648C152.992 19.4532 153.676 18.9864 154.465 18.6645C155.27 18.3265 156.147 18.1575 157.097 18.1575C157.998 18.1575 158.819 18.3184 159.559 18.6403C160.316 18.9623 160.968 19.4129 161.515 19.9923C162.062 20.5718 162.481 21.2558 162.77 22.0445C163.06 22.8332 163.189 23.6943 163.157 24.6278L163.132 25.6659H152.92L152.365 23.4931H159.994L159.583 23.9518V23.4689C159.551 23.0665 159.422 22.7124 159.197 22.4066C158.988 22.0847 158.706 21.8353 158.352 21.6582C157.998 21.4812 157.596 21.3926 157.145 21.3926C156.517 21.3926 155.978 21.5214 155.527 21.7789C155.093 22.0203 154.763 22.3825 154.538 22.8653C154.312 23.3321 154.2 23.9115 154.2 24.6036C154.2 25.3118 154.344 25.9315 154.634 26.4626C154.94 26.9777 155.374 27.3801 155.938 27.6698C156.517 27.9595 157.201 28.1043 157.99 28.1043C158.537 28.1043 159.02 28.0239 159.439 27.8629C159.873 27.702 160.34 27.4283 160.839 27.0421L162.65 29.6012C162.151 30.0358 161.619 30.3899 161.056 30.6635C160.493 30.9371 159.913 31.1383 159.318 31.2671C158.738 31.4119 158.159 31.4843 157.58 31.4843ZM165.618 31.2429V18.4231H169.287L169.456 22.5998L168.732 21.8031C168.925 21.111 169.239 20.4913 169.674 19.9441C170.124 19.3968 170.647 18.9623 171.243 18.6403C171.838 18.3184 172.474 18.1575 173.15 18.1575C173.44 18.1575 173.705 18.1816 173.947 18.2299C174.204 18.2782 174.438 18.3345 174.647 18.3989L173.585 22.6722C173.408 22.5595 173.166 22.471 172.86 22.4066C172.571 22.3262 172.265 22.2859 171.943 22.2859C171.589 22.2859 171.259 22.3503 170.953 22.4791C170.647 22.5917 170.39 22.7607 170.181 22.9861C169.971 23.2114 169.802 23.477 169.674 23.7828C169.561 24.0886 169.505 24.4346 169.505 24.8209V31.2429H165.618Z" fill="black"/>
<path d="M31.9138 42.0991C37.539 42.0991 42.0991 37.539 42.0991 31.9138C42.0991 26.2886 37.539 21.7285 31.9138 21.7285C26.2886 21.7285 21.7285 26.2886 21.7285 31.9138C21.7285 37.539 26.2886 42.0991 31.9138 42.0991Z" fill="#5EDC89"/>
<path opacity="0.25" d="M31.9137 21.7285C30.4117 21.721 28.9266 22.0459 27.5648 22.6798C26.2031 23.3137 24.9984 24.241 24.0371 25.3952C25.9679 23.596 28.5216 22.6166 31.1603 22.6631C33.799 22.7097 36.3166 23.7786 38.1827 25.6447C40.0488 27.5109 41.1178 30.0285 41.1643 32.6671C41.2109 35.3058 40.2314 37.8595 38.4323 39.7903C40.0605 38.4556 41.2351 36.649 41.7944 34.6193C42.3537 32.5895 42.2702 30.4363 41.5555 28.4559C40.8408 26.4756 39.5299 24.7653 37.8033 23.5606C36.0766 22.3558 34.0191 21.7158 31.9137 21.7285Z" fill="white"/>
<path d="M31.9142 21.7285C34.1188 21.7236 36.2647 22.4389 38.0254 23.7656V8.14819H1.3584V32.5928H21.7968C21.7968 32.3891 21.7289 32.1175 21.7289 31.9138C21.7289 29.2125 22.802 26.6219 24.7121 24.7117C26.6222 22.8016 29.2129 21.7285 31.9142 21.7285Z" fill="#FFF4E3"/>
<path opacity="0.14" d="M17.6543 32.5929H21.7963C21.7963 32.3892 21.7284 32.1175 21.7284 31.9138C21.7276 29.8563 22.35 27.8468 23.5136 26.1499C24.6772 24.453 26.3274 23.1483 28.247 22.4076H27.8396C25.1383 22.4076 22.5476 23.4807 20.6375 25.3908C18.7274 27.3009 17.6543 29.8916 17.6543 32.5929Z" fill="#000064"/>
<path opacity="0.14" d="M1.3584 8.14819L19.6919 22.136L38.0254 8.14819V9.16672L17.6548 27.1607L1.3584 11.2038V8.14819Z" fill="#000064"/>
<path d="M21.7289 32.5928H1.3584V8.14819H38.0254V23.7656" stroke="#2E4369" stroke-width="1.35804" stroke-miterlimit="10" stroke-linecap="round" stroke-linejoin="round"/>
<path d="M35.9883 29.8768L30.5562 35.3089L27.8401 32.5928M1.3584 8.14819L19.6919 22.136L38.0254 8.14819H1.3584Z" stroke="#2E4369" stroke-width="1.35804" stroke-miterlimit="10" stroke-linecap="round" stroke-linejoin="round"/>
<path d="M31.9138 42.0991C37.539 42.0991 42.0991 37.539 42.0991 31.9138C42.0991 26.2886 37.539 21.7285 31.9138 21.7285C26.2886 21.7285 21.7285 26.2886 21.7285 31.9138C21.7285 37.539 26.2886 42.0991 31.9138 42.0991Z" fill="#3CB265" stroke="#2E4369" stroke-width="1.35804" stroke-miterlimit="10" stroke-linecap="round" stroke-linejoin="round"/>
</svg>
